<svg xmlns="http://www.w3.org/2000/svg" width="773.839" height="659" viewBox="0 0 773.839 659"><defs><style>.a{fill:#e6e6e6;}.b{fill:#d0d0d0;}.c{fill:#3f3d56;}.d{fill:#a0616a;}.e{fill:#ed1c24;}.f{fill:#2f2e41;}.g{fill:#d0cde1;}</style></defs><path class="a" d="M539.688,552.3c-2.015-1.2-4.045-2.465-6.033-3.743l-1.35,1.906c2.01,1.293,4.062,2.566,6.1,3.785Z" transform="translate(-83.718 -120.5)"/><path class="b" d="M516.156,211.241c-2.688-1.729-5.439-3.415-8.178-5.012l-1.259,1.962c4.1,2.391,8.207,4.971,12.15,7.635l1.395-1.877Q518.232,212.577,516.156,211.241Zm15.819,11.2-1.526,1.781c3.75,2.916,7.434,5.988,10.951,9.128l1.649-1.678C539.492,228.5,535.766,225.39,531.974,222.44Zm-36.8-23.122c-4.338-2.158-8.8-4.2-13.269-6.06l-.966,2.107c4.415,1.842,8.828,3.858,13.118,5.993Zm58.258,42.288-1.767,1.567c3.289,3.37,6.5,6.894,9.534,10.473l1.876-1.445c-3.072-3.621-6.316-7.186-9.643-10.6Zm-85.2-53.524c-4.6-1.568-9.315-3-14.019-4.265l-.654,2.212c4.652,1.25,9.315,2.669,13.862,4.218Zm103.7,75.322-1.977,1.318c2.769,3.77,5.435,7.678,7.922,11.613l2.066-1.187C577.424,271.169,574.729,267.218,571.928,263.4ZM439.9,180.478c-4.795-.951-9.679-1.754-14.519-2.386l-.328,2.279c4.784.625,9.614,1.418,14.355,2.359ZM587.087,287.393l-2.147,1.049c2.2,4.1,4.281,8.318,6.179,12.544l2.219-.905C591.417,295.806,589.314,291.538,587.087,287.393ZM410.725,176.663c-4.884-.315-9.835-.472-14.718-.467l0,2.3c4.827,0,9.723.15,14.553.461Zm187.94,136.484-2.277.759c1.595,4.346,3.052,8.8,4.331,13.235l2.327-.608C601.752,322.045,600.278,317.541,598.665,313.147ZM381.293,176.69c-4.872.323-9.8.81-14.642,1.448l.331,2.277c4.789-.631,9.66-1.113,14.478-1.432ZM606.459,340.175l-2.364.457c.959,4.513,1.769,9.115,2.4,13.68l2.392-.3c-.644-4.616-1.462-9.27-2.433-13.833ZM352.15,180.534c-4.785.952-9.595,2.073-14.295,3.331l.652,2.213c4.648-1.244,9.4-2.352,14.135-3.293ZM610.328,367.972l-2.407.147c.308,4.591.452,9.257.43,13.867l2.412.01c.023-4.662-.124-9.381-.435-14.024ZM323.834,188.114c-4.6,1.562-9.206,3.3-13.68,5.151l.962,2.109c4.424-1.835,8.976-3.549,13.528-5.095ZM610.188,396.021l-2.405-.168c-.354,4.6-.88,9.239-1.565,13.8l2.388.325C609.3,405.366,609.832,400.671,610.188,396.021ZM296.878,199.294c-4.333,2.144-8.642,4.46-12.807,6.881l1.257,1.962c4.119-2.393,8.379-4.683,12.663-6.8ZM606.021,423.8l-2.359-.483c-1.014,4.508-2.206,9.04-3.543,13.471l2.319.635C603.79,432.944,605,428.359,606.021,423.8ZM271.8,213.876c-3.987,2.693-7.926,5.553-11.706,8.5l1.528,1.78c3.737-2.914,7.63-5.741,11.573-8.4ZM597.88,450.762l-2.268-.787c-1.654,4.327-3.486,8.653-5.447,12.857l2.2.933C594.352,459.513,596.206,455.139,597.88,450.762ZM249.029,231.627c-3.558,3.189-7.045,6.538-10.365,9.954l1.77,1.563c3.283-3.378,6.731-6.689,10.248-9.841Zm336.907,244.75L583.8,475.3c-2.256,4.063-4.693,8.109-7.24,12.027l2.05,1.211C581.191,484.578,583.654,480.486,585.936,476.377ZM229.04,252.189c-3.062,3.618-6.037,7.389-8.844,11.208l1.977,1.319c2.775-3.777,5.718-7.5,8.746-11.083ZM568.482,498.863c-2.818,3.746-5.8,7.443-8.873,10.989l1.86,1.463c3.105-3.586,6.124-7.324,8.975-11.112ZM549.97,520.238c-3.329,3.346-6.816,6.619-10.366,9.73l1.633,1.692c3.591-3.145,7.118-6.456,10.485-9.841Zm-21.412,18.755c-3.77,2.871-7.692,5.653-11.658,8.269l1.373,1.891c4.012-2.646,7.979-5.46,11.791-8.364Zm-23.891,15.754c-4.154,2.353-8.443,4.6-12.747,6.668l1.087,2.053c4.354-2.1,8.691-4.364,12.892-6.744Zm-25.947,12.488c-4.456,1.791-9.029,3.455-13.588,4.948l.783,2.174c4.612-1.509,9.236-3.192,13.744-5Zm-27.5,9c-4.664,1.2-9.432,2.252-14.173,3.142l.466,2.256c4.795-.9,9.617-1.969,14.334-3.177Zm-28.539,5.356c-4.8.58-9.676,1.01-14.495,1.277l.14,2.3c4.873-.27,9.805-.7,14.658-1.291ZM393.63,583.2c-4.84-.049-9.734-.257-14.546-.62l-.191,2.292c4.867.366,9.816.577,14.711.626Zm-29.015-2.19c-4.785-.678-9.6-1.525-14.323-2.515l-.519,2.245c4.772,1,9.647,1.858,14.487,2.545Zm-28.432-5.967c-4.635-1.3-9.28-2.768-13.81-4.368l-.839,2.156c4.581,1.618,9.281,3.1,13.967,4.418Zm-27.27-9.634c-4.4-1.892-8.789-3.956-13.049-6.134l-1.14,2.027c4.308,2.2,8.748,4.29,13.2,6.2Z" transform="translate(163.074 -120.5)"/><path class="a" d="M604,276.626l-2.067-1.186c-1.256,1.989-2.484,4.008-3.649,6l2.107,1.119C601.544,280.589,602.758,278.592,604,276.626Z" transform="translate(-215.251 -120.5)"/><ellipse class="c" cx="295.895" cy="17" rx="295.895" ry="17" transform="translate(0 625)"/><path class="d" d="M581.139,275.3s-8.291,102.718,3.316,105.879,53.061,26.865,119.387,20.544c0,0,64.668,33.186,54.719,1.58s-54.719-23.7-54.719-23.7-79.591-15.8-82.907-26.865,9.949-56.89,4.974-58.47S581.139,275.3,581.139,275.3Z" transform="translate(-347.323 -120.5)"/><path class="c" d="M637.059,377.742h0l-22.265-4.914a4.934,4.934,0,0,0-5.472,2.5L586.516,420.4a3.584,3.584,0,0,0-.045,3.159,3.877,3.877,0,0,0,2.508,2.066l22.627,6.127a5.265,5.265,0,0,0,6.182-2.8l14.552-32.214.443.234,2.77-6.1-.46-.224,4.062-8.992a2.73,2.73,0,0,0-.084-2.425A2.974,2.974,0,0,0,637.059,377.742Z" transform="translate(-237.546 -120.5)"/><path class="e" d="M617.189,374.5l-2.6-.574a3.409,3.409,0,0,0-3.792,1.747l-22.261,44.785a1.9,1.9,0,0,0-.021,1.653,2.051,2.051,0,0,0,1.3,1.094l22.468,6.461a2.736,2.736,0,0,0,3.254-1.445L636.6,381.5a2.154,2.154,0,0,0-.063-1.9,2.345,2.345,0,0,0-1.573-1.175l-2.466-.544a1.134,1.134,0,0,0-1.234.534h0a1,1,0,0,1-1.089.471l-11.7-2.583A1.607,1.607,0,0,1,617.189,374.5Z" transform="translate(-237.264 -120.5)"/><path class="f" d="M721.679,454.388s-6.464,148.4-16.413,170.521c-8.287,18.428-13.123,78.522-14.507,98.083-.278,3.923-.416,6.215-.416,6.215s-26.53,0-28.188-6.321-6.633-75.853,0-97.977S653.7,449.647,653.7,449.647Z" transform="translate(-388.226 -120.5)"/><path class="f" d="M658.357,721.306s16.581,4.741,19.9,11.062,58.035,17.383,41.454,25.284-66.326-6.321-66.326-6.321-26.53-1.58-24.872-11.062,7.7-21.165,7.7-21.165Z" transform="translate(-363.204 -120.5)"/><path class="f" d="M702.6,738.32s16.581,4.741,19.9,11.062,58.035,17.383,41.454,25.284-66.326-6.321-66.326-6.321-26.53-1.58-24.872-11.062,7.7-21.165,7.7-21.165Z" transform="translate(-452.347 -120.5)"/><path class="f" d="M777.22,450.709l-23.214,37.927L715.263,620.5s3.922,120.981-1.053,120.981-31.5,7.9-33.163,0c-1.4-6.674-19.972-70.611-10.715-113.167a520.081,520.081,0,0,0,11.587-81.643l4.1-73.838s-16.581-28.445,1.658-33.186S777.22,450.709,777.22,450.709Z" transform="translate(-457.151 -120.5)"/><ellipse class="d" cx="39.796" cy="37.927" rx="39.796" ry="37.927" transform="translate(257.468 10.992)"/><path class="d" d="M728.33,194.7s-6.633,50.569-4.974,53.73-39.8-34.766-39.8-34.766,14.923-22.124,11.607-33.186Z" transform="translate(-425.694 -120.5)"/><path class="g" d="M650.374,245.273s46.428-31.606,48.086-37.927l34.821,28.445,5.917-6.712s27.246,25.676,27.246,36.738,1.658,44.248-3.316,53.73,14.923,129.583,14.923,129.583-16.581,14.223-18.24,15.8-67.984-9.482-67.984-9.482-33.163-3.161-33.163-7.9,9.949-75.853,6.633-94.817S650.374,245.273,650.374,245.273Z" transform="translate(-439.944 -120.5)"/><path class="d" d="M614.324,289.52s-8.291,102.718,3.316,105.879,53.061,26.865,119.387,20.544c0,0,64.668,33.186,54.719,1.58s-54.719-23.7-54.719-23.7-79.591-15.8-82.907-26.865,9.949-56.89,4.974-58.47S614.324,289.52,614.324,289.52Z" transform="translate(-414.018 -120.5)"/><path class="f" d="M706.855,150.473c-5.44-1.845-11.441-2.793-16.987-1.263-7.85,2.165-13.287,8.723-19.151,14.147s-14.087,10.231-21.808,7.68a11.762,11.762,0,0,0-2.443-9c-.859-1.078-1.951-2.1-2.169-3.44-.33-2.031,1.462-3.783,2-5.774.942-3.489-1.64-8.264,1.534-10.219.838-.516,1.9-.634,2.717-1.178,3.209-2.138-.355-7.455,1.767-10.591a6.72,6.72,0,0,1,2.411-1.917c15.387-8.556,34.2-8.58,52.016-8.364,2.48.03,5.932,1.2,5.233,3.471,3.366-2.3,7.774.931,10.488,3.916l5.554,6.109a47.282,47.282,0,0,1,6.787,8.75c1.7,3.092,2.072,7.846-1.3,9.194,2.51-1,5.556,13.169-6.017,10.837C720.758,161.476,714.168,152.953,706.855,150.473Z" transform="translate(-392.551 -120.5)"/><path class="g" d="M775.24,248.433l-26.53-3.161s-26.53,48.989-11.607,56.89,53.061,14.223,53.061,11.062S775.24,248.433,775.24,248.433Z" transform="translate(-537.057 -120.5)"/><path class="c" d="M893.141,752.594c.277-.431,6.8-10.818,9.067-32.388,2.076-19.789.741-53.144-17.41-99.672-34.386-88.144,7.924-159.264,8.357-159.972l-2.087-1.154c-.11.18-11.027,18.312-17.477,47.186a196.744,196.744,0,0,0,8.946,114.742c34.327,87.994,8.807,129.649,8.545,130.06Z" transform="translate(-786.559 -120.5)"/><ellipse class="e" cx="15.682" cy="14.945" rx="15.682" ry="14.945" transform="translate(104.347 304.996)"/><ellipse class="e" cx="15.682" cy="14.945" rx="15.682" ry="14.945" transform="translate(54.889 360.179)"/><ellipse class="e" cx="15.682" cy="14.945" rx="15.682" ry="14.945" transform="translate(88.665 396.967)"/><ellipse class="e" cx="15.682" cy="14.945" rx="15.682" ry="14.945" transform="translate(47.651 428.008)"/><ellipse class="e" cx="15.682" cy="14.945" rx="15.682" ry="14.945" transform="translate(100.728 476.293)"/><path class="c" d="M916.228,753.144s15.682-36.789-31.364-64.38Z" transform="translate(-819.119 -120.5)"/><path class="c" d="M809.429,752.477s7.137-39.122,62.375-38.786Z" transform="translate(-693.034 -120.5)"/></svg>