<svg xmlns="http://www.w3.org/2000/svg" width="201.517" height="181.079" viewBox="0 0 201.517 181.079"><path d="M43.306,2C67.161,2,86.365,20.489,86.365,43.154s-19.2,41.154-43.059,41.154S0,65.848,0,43.154a2.633,2.633,0,0,1,.225-1.072H.236C.879,19.926,19.861,2.011,43.306,2.011Zm0,5.487c-20.739,0-37.548,15.965-37.548,35.667S22.567,78.822,43.306,78.822s37.3-15.935,37.3-35.667S64.052,7.487,43.306,7.487ZM42.1,18.494a15.741,15.741,0,0,1,4.5.482,15.129,15.129,0,0,1,7.624,4.63,13.8,13.8,0,0,1,1.507,16.365,2.73,2.73,0,0,1-.247.364,2.707,2.707,0,0,1-.191.332,17.377,17.377,0,0,0-1.226,2.208h3.711a2.747,2.747,0,1,1,0,5.488H52.471a17.537,17.537,0,0,0,4.993,14.586,2.651,2.651,0,0,1,.3,3.677,2.974,2.974,0,0,1-3.811.642,2.944,2.944,0,0,1-.618-.279A21.286,21.286,0,0,0,47.3,64.3a8.255,8.255,0,0,0-5.7,1.04l.157-.1a19.4,19.4,0,0,1-9.536,2.583,11.927,11.927,0,0,1-8.58-3.033,2.654,2.654,0,0,1,.09-3.88A2.98,2.98,0,0,1,27.8,61a6.482,6.482,0,0,0,4.408,1.34,13.769,13.769,0,0,0,6.579-1.79q.083-.046.169-.086a14.962,14.962,0,0,1,9.255-1.575,22.763,22.763,0,0,1-1.552-10.524H40.315a2.747,2.747,0,1,1,0-5.488h7.6a22.781,22.781,0,0,1,2.53-5.176q.064-.094.135-.182a2.706,2.706,0,0,1,.169-.289,8.485,8.485,0,0,0-.933-10.1,9.557,9.557,0,0,0-10.278-2.626,8.846,8.846,0,0,0-6.1,8.306,2.882,2.882,0,0,1-5.758,0,14.39,14.39,0,0,1,9.885-13.461A15.659,15.659,0,0,1,42.1,18.494ZM131.29,40.422c16.52,0,29.924,12.721,29.924,28.433V85.809l3.115-2.969a2.951,2.951,0,0,1,2.069-.825,2.882,2.882,0,0,1,2.656,1.713,2.652,2.652,0,0,1-.654,2.992l-8.142,7.759a2.98,2.98,0,0,1-4.071,0l-8.142-7.759a2.653,2.653,0,0,1,0-3.88,2.98,2.98,0,0,1,4.072,0l3.339,3.183V68.855c0-12.759-10.728-22.946-24.166-22.946H95.035a2.747,2.747,0,1,1,0-5.488ZM43.34,89.8a2.951,2.951,0,0,1,1.99.8l8.142,7.759a2.657,2.657,0,0,1,.006,3.885,2.984,2.984,0,0,1-4.076.005l-3.329-3.183v17.169c0,12.759,10.717,22.946,24.155,22.946h36.255a2.747,2.747,0,1,1,0,5.488H70.227c-16.52,0-29.913-12.721-29.913-28.433V99.259l-3.126,2.99a2.984,2.984,0,0,1-4.076-.005,2.657,2.657,0,0,1,.006-3.885L41.259,90.6A2.954,2.954,0,0,1,43.34,89.8Zm115.108,10.985c23.855,0,43.07,18.479,43.07,41.144s-19.215,41.154-43.07,41.154-43.295-18.461-43.295-41.154a2.633,2.633,0,0,1,.225-1.072h.011c.643-22.156,19.613-40.061,43.059-40.061Zm0,5.487c-20.739,0-37.537,15.954-37.537,35.656s16.8,35.667,37.537,35.667,37.312-15.935,37.312-35.667S179.193,106.269,158.447,106.269Zm-.067,10.975a2.809,2.809,0,0,1,2.834,2.776v2.969c5.551,1.154,10.065,4.989,10.065,10.385,0,6.222-5.708,11-12.437,11.232a3.012,3.012,0,0,1-.506.054c-4.2,0-7.186,2.72-7.186,5.787s2.982,5.777,7.186,5.777,7.186-2.71,7.186-5.777a2.882,2.882,0,0,1,5.758,0c0,5.475-4.421,9.822-10.065,10.953v2.444a2.882,2.882,0,0,1-5.758,0V161.4c-5.644-1.131-10.065-5.478-10.065-10.953,0-5.687,5.008-9.666,10.964-10.578a2.962,2.962,0,0,1,1.979-.707c4.2,0,7.186-2.721,7.186-5.787,0-3.014-2.9-5.652-6.983-5.744a3.021,3.021,0,0,1-.427,0c-4.075.1-6.961,2.736-6.961,5.744a2.882,2.882,0,0,1-5.758,0c0-5.476,4.421-9.833,10.065-10.964v-2.39a2.679,2.679,0,0,1,.847-1.976A2.955,2.955,0,0,1,158.38,117.243Z" transform="translate(0 -2)"/></svg>