<svg id="Group_1" data-name="Group 1" xmlns="http://www.w3.org/2000/svg" width="148.212" height="48.655" viewBox="0 0 148.212 48.655">
  <path id="Path_1" data-name="Path 1" d="M232.78,71.754a2.039,2.039,0,0,1-1.966-2.111V46.2L225.5,47V69.5a5.782,5.782,0,0,0,5.679,5.9h2.985v-3.64Z" transform="translate(-85.952 -34.183)" fill="#ed1c24"/>
  <path id="Path_2" data-name="Path 2" d="M151,78.024h5.315V55.6L151,56.474Z" transform="translate(-65.69 -36.74)" fill="#ed1c24"/>
  <path id="Path_3" data-name="Path 3" d="M162.9,59.218V77.71h5.315V61.329c0-2.767,6.116-2.184,6.116-2.184l1.893-4.15A12.448,12.448,0,0,0,162.9,59.218Z" transform="translate(-68.927 -36.426)" fill="#ed1c24"/>
  <path id="Path_4" data-name="Path 4" d="M188.915,69.716V56.757h3.2V52.68h-3.2V46.2L183.6,47V69.5a5.782,5.782,0,0,0,5.679,5.9h2.985v-3.64h-1.31A2.035,2.035,0,0,1,188.915,69.716Z" transform="translate(-74.556 -34.183)" fill="#ed1c24"/>
  <path id="Path_5" data-name="Path 5" d="M153.376,43.5a3.276,3.276,0,1,0,3.276,3.276A3.218,3.218,0,0,0,153.376,43.5Z" transform="translate(-65.446 -33.449)" fill="#ed1c24"/>
  <path id="Path_6" data-name="Path 6" d="M206.009,73.6c-3.495-1.383-3.276-6.625-3.276-6.625h12.741c0-6.625-1.6-12.377-8.008-12.377S197.2,59.332,197.2,65.957s4.077,11.794,10.484,11.794a15.3,15.3,0,0,0,7.936-2.257l-1.82-3.131C213.872,72.291,209.5,74.912,206.009,73.6Zm.728-14.925c3.058,0,3.64,4.3,3.64,4.3H203.1C203.024,62.972,203.68,58.677,206.737,58.677Z" transform="translate(-78.255 -36.468)" fill="#ed1c24"/>
  <path id="Path_7" data-name="Path 7" d="M132.5,54.8a27.07,27.07,0,0,0-4.514.437,14.522,14.522,0,0,0-4.3,1.893l1.674,3.495a8.787,8.787,0,0,1,5.606-2.038c4.514,0,3.859,4.514,3.859,4.514-8.809-1.82-13.177,2.694-13.032,7.426.073,2.111.364,4.3,2.767,5.9,7.717,5.1,15.216-2.33,15.216-2.33V61.716A7.139,7.139,0,0,0,132.5,54.8Zm2.33,18.565s-3.495,1.6-5.751.291-1.966-5.023.146-6.116c2.111-1.165,5.606-.437,5.606-.437Z" transform="translate(-57.748 -36.522)" fill="#ed1c24"/>
  <path id="Path_8" data-name="Path 8" d="M10.044,10.214C-4.974,23.821.442,28.372,4.037,30.1s8.374-.637,14.381-5.325c5.962-4.687,19.842-13.744,23.119-9.238s3.322,13.425-10.695,25.212-16.929,4.869-10.012-.5c6.917-5.416,5.643-8.647,2.366-9.1-3.413-.5-6.371.319-9.466,5.916,0,0-4.687,9.011,1.32,11.332,4.141,1.593,16.474-3.368,25.485-12.424,6.644-6.69,11.514-14.7,9.466-25.394C47.407-3.439,25.062-3.393,10.044,10.214Z" transform="translate(-0.059 -0.037)" fill="#ed1c24"/>
</svg>
