<svg xmlns="http://www.w3.org/2000/svg" width="56.03" height="42.846" viewBox="0 0 56.03 42.846"><defs><style>.a{fill:#fbfbfb;}.a,.ae,.af,.ag,.ah,.b,.c,.d,.e,.f,.g,.h,.i,.j,.k,.l,.m,.n,.o,.p,.q,.r,.s,.t,.u,.v,.w,.x,.y{fill-rule:evenodd;}.b{fill:#f7f7f7;}.c{fill:#f3f3f3;}.d{fill:#efefef;}.e{fill:#ebebeb;}.f{fill:#e7e7e7;}.g{fill:#e4e4e4;}.h{fill:#e0e0e0;}.i{fill:#dcdcdc;}.j{fill:#d8d8d8;}.k{fill:#d4d4d4;}.l{fill:#d0d0d0;}.m{fill:#ccc;}.n{fill:#c8c8c8;}.o{fill:#c4c4c4;}.p{fill:silver;}.q{fill:#bcbcbc;}.r{fill:#b8b8b8;}.s{fill:#b4b4b4;}.t{fill:#b1b1b1;}.u{fill:#adadad;}.v{fill:#a9a9a9;}.w{fill:#a5a5a5;}.x{fill:#a1a1a1;}.y{fill:#9d9d9d;}.z{fill:#02660a;}.aa,.ae,.ag{fill:#f4f4f4;}.ab{fill:#030303;}.ac{fill:#00840f;}.ad,.af{fill:#d20714;}.ae{stroke:#000;stroke-miterlimit:2.414;stroke-width:0.029px;}</style></defs><g transform="translate(0 0)"><g transform="translate(0 6.363)"><path class="a" d="M700.326,64.229a2,2,0,0,1,2.094,1.838V95.049c0,1-.953,1.593-2.084,1.818-16.2,3.184-53.936,5.759-53.936,1.75V69.182c-.03-3.872,26.481-5.287,53.926-4.95Z" transform="translate(-646.4 -64.184)"/><path class="b" d="M700.352,64.44a1.97,1.97,0,0,1,2.074,1.818V94.876c0,.99-.943,1.583-2.064,1.8-16.049,3.145-53.445,5.692-53.445,1.732V69.343C646.887,65.508,673.167,64.116,700.352,64.44Z" transform="translate(-646.409 -64.189)"/><path class="c" d="M700.384,64.649a1.955,1.955,0,0,1,2.054,1.8V94.693c0,.982-.944,1.563-2.044,1.779-15.9,3.106-52.954,5.621-52.954,1.71V69.495C647.41,65.711,673.445,64.335,700.384,64.649Z" transform="translate(-646.418 -64.191)"/><path class="d" d="M700.413,64.869a1.927,1.927,0,0,1,2.034,1.769V94.52c0,.973-.924,1.533-2.024,1.75-15.755,3.066-52.466,5.552-52.466,1.69V69.646c-.03-3.725,25.769-5.091,52.453-4.776Z" transform="translate(-646.427 -64.195)"/><path class="e" d="M700.441,65.079a1.907,1.907,0,0,1,2.015,1.75V94.337c0,.953-.924,1.513-2,1.732-15.607,3.027-51.971,5.474-51.971,1.67V69.807c-.03-3.685,25.524-5.032,51.961-4.727Z" transform="translate(-646.436 -64.199)"/><path class="f" d="M700.469,65.3a1.886,1.886,0,0,1,1.995,1.732V94.164c0,.943-.914,1.494-1.98,1.7C685.02,98.844,649,101.27,649,97.515V69.957c-.02-3.637,25.288-4.973,51.469-4.659Z" transform="translate(-646.445 -64.203)"/><path class="g" d="M700.5,65.507a1.856,1.856,0,0,1,1.98,1.7v26.76c0,.934-.9,1.474-1.966,1.68C685.2,98.6,649.53,100.968,649.53,97.279V70.1c-.03-3.577,25.032-4.884,50.968-4.589Z" transform="translate(-646.454 -64.207)"/><path class="h" d="M700.526,65.729a1.836,1.836,0,0,1,1.956,1.68v26.4c0,.914-.895,1.454-1.946,1.661-15.165,2.9-50.486,5.258-50.486,1.609V70.269C650.02,66.732,674.846,65.424,700.526,65.729Z" transform="translate(-646.463 -64.211)"/><path class="i" d="M700.555,65.939a1.816,1.816,0,0,1,1.937,1.651V93.618c0,.9-.885,1.435-1.927,1.631-15.017,2.86-49.992,5.19-49.992,1.583V70.4c-.03-3.465,24.55-4.757,49.992-4.462Z" transform="translate(-646.471 -64.214)"/><path class="j" d="M700.584,66.149a1.81,1.81,0,0,1,1.927,1.631V93.432c0,.895-.875,1.416-1.907,1.609-14.87,2.821-49.5,5.12-49.5,1.563V70.552C651.06,67.132,675.405,65.864,700.584,66.149Z" transform="translate(-646.481 -64.218)"/><path class="k" d="M700.613,66.37a1.783,1.783,0,0,1,1.907,1.609v25.29c0,.875-.866,1.4-1.887,1.583-14.725,2.782-49.013,5.041-49.013,1.553V70.723c-.039-3.39,24.059-4.639,48.993-4.354Z" transform="translate(-646.49 -64.222)"/><path class="l" d="M700.641,66.579a1.761,1.761,0,0,1,1.887,1.583V93.075c0,.866-.855,1.376-1.877,1.563-14.566,2.742-48.521,4.973-48.521,1.533V70.864c-.03-3.331,23.824-4.56,48.507-4.285Z" transform="translate(-646.498 -64.226)"/><path class="m" d="M700.67,66.8a1.747,1.747,0,0,1,1.867,1.563V92.918c0,.855-.855,1.361-1.856,1.543-14.428,2.7-48.02,4.9-48.02,1.5V71.025c-.04-3.283,23.578-4.5,48.012-4.226Z" transform="translate(-646.507 -64.229)"/><path class="n" d="M700.7,67.006a1.72,1.72,0,0,1,1.848,1.533v24.18c0,.835-.845,1.336-1.828,1.523-14.281,2.663-47.529,4.836-47.529,1.485V71.176c-.049-3.233,23.322-4.432,47.509-4.168Z" transform="translate(-646.516 -64.232)"/><path class="o" d="M700.722,67.219a1.7,1.7,0,0,1,1.828,1.513v23.8c0,.825-.835,1.307-1.808,1.494C686.6,96.653,653.7,98.787,653.7,95.494V71.318c-.03-3.174,23.1-4.354,47.022-4.1Z" transform="translate(-646.525 -64.236)"/><path class="p" d="M700.756,67.44a1.684,1.684,0,0,1,1.808,1.494v23.44c0,.815-.825,1.287-1.8,1.474-13.975,2.585-46.545,4.688-46.545,1.445v-23.8C654.191,68.343,677.071,67.183,700.756,67.44Z" transform="translate(-646.534 -64.24)"/><path class="q" d="M700.784,67.649a1.649,1.649,0,0,1,1.789,1.464V92.18c0,.8-.815,1.268-1.778,1.445-13.828,2.545-46.054,4.619-46.054,1.425V71.62c-.03-3.066,22.615-4.216,46.044-3.971Z" transform="translate(-646.543 -64.244)"/><path class="r" d="M700.8,67.869a1.642,1.642,0,0,1,1.769,1.445v22.7c0,.786-.805,1.249-1.76,1.425-13.691,2.5-45.563,4.55-45.563,1.406V71.791C655.23,68.754,677.628,67.623,700.8,67.869Z" transform="translate(-646.552 -64.247)"/><path class="s" d="M700.832,68.08a1.609,1.609,0,0,1,1.75,1.416V91.824c0,.776-.8,1.229-1.74,1.406C687.308,95.7,655.78,97.7,655.78,94.616V71.942C655.75,68.953,677.912,67.844,700.832,68.08Z" transform="translate(-646.561 -64.251)"/><path class="t" d="M700.86,68.3a1.594,1.594,0,0,1,1.732,1.4V91.651c0,.767-.786,1.209-1.72,1.376-13.386,2.428-44.57,4.4-44.57,1.361v-22.3c-.03-2.939,21.887-4.029,44.56-3.794Z" transform="translate(-646.57 -64.255)"/><path class="u" d="M700.889,68.5a1.58,1.58,0,0,1,1.71,1.376V91.473c0,.742-.776,1.189-1.7,1.361-13.24,2.378-44.079,4.331-44.079,1.346V72.254c-.03-2.9,21.655-3.971,44.069-3.744Z" transform="translate(-646.579 -64.258)"/><path class="v" d="M700.918,68.719a1.553,1.553,0,0,1,1.69,1.346V91.284c0,.742-.766,1.169-1.68,1.336-13.09,2.339-43.588,4.265-43.588,1.326V72.4c-.03-2.83,21.407-3.892,43.578-3.675Z" transform="translate(-646.588 -64.262)"/><path class="w" d="M700.947,68.939a1.532,1.532,0,0,1,1.67,1.326V91.111c0,.718-.767,1.15-1.661,1.307-12.943,2.3-43.1,4.186-43.1,1.307V72.556c-.02-2.792,21.16-3.836,43.087-3.617Z" transform="translate(-646.597 -64.266)"/><path class="x" d="M700.972,69.15a1.512,1.512,0,0,1,1.651,1.3V90.928c0,.708-.757,1.13-1.641,1.287-12.8,2.271-42.6,4.118-42.6,1.287V72.707C658.358,69.965,679.3,68.943,700.972,69.15Z" transform="translate(-646.606 -64.27)"/><path class="y" d="M701,69.368a1.485,1.485,0,0,1,1.632,1.278V90.754c0,.7-.742,1.114-1.622,1.268-12.649,2.22-42.113,4.048-42.113,1.271V72.876c-.02-2.7,20.678-3.7,42.1-3.5Z" transform="translate(-646.615 -64.272)"/></g><path class="z" d="M653.048,92c16.059-1.769,32.128,6.073,48.187,4.3a2.731,2.731,0,0,1,1.277.079c-5.415,3.744-46.831.963-50.7-3.617-.01-.01-.02-.471-.02-.481C651.83,92.2,652.075,92.162,653.048,92Z" transform="translate(-646.493 -58.295)"/><g transform="translate(5.287 0)"><path class="aa" d="M651.78,58.4c16.9-3.381,33.818,6.958,50.723,3.577V95.793c-16.914,3.381-33.819-6.958-50.723-3.577Z" transform="translate(-651.78 -57.709)"/><path class="ab" d="M651.78,58.4c16.9-3.381,33.818,6.958,50.723,3.577V72.122c-16.914,3.381-33.819-6.958-50.723-3.577Z" transform="translate(-651.78 -57.709)"/><path class="ac" d="M651.78,82.488c16.9-3.381,33.818,6.958,50.723,3.577V96.212c-16.914,3.381-33.819-6.958-50.723-3.577Z" transform="translate(-651.78 -58.124)"/><path class="ad" d="M651.78,70.45V80.6c21.269-2.939,29.45,6.516,50.723,3.577V74.027C681.156,76.959,673.136,67.511,651.78,70.45Z" transform="translate(-651.78 -57.918)"/><g transform="translate(18.575 7.066)"><path class="ae" d="M670.68,64.9c0-.01,3.567,4.059,3.027,5.357,3.273,6.29,6.546,12.649,9.818,18.889-.147.059-.294.124-.442.187-3.273-6.26-6.536-12.639-9.8-18.938,0,0-1.278-.124-2.6-5.494Z" transform="translate(-670.68 -64.9)"/><path class="ae" d="M684.275,67.61c0,.01-3.568,2.732-3.027,4.216-3.273,5-6.546,9.916-9.819,14.972.147.124.294.236.443.344,3.273-5.051,6.536-9.986,9.8-15.007,0,0,1.288.384,2.6-4.521Z" transform="translate(-670.692 -64.947)"/><path class="af" d="M677.513,88.1s.551.207,1.543-.742a11.849,11.849,0,0,0,3.48-8.266c0-4.973-3.627-10.8-5.023-11.1s-5.023,4.083-5.023,9.081a17.932,17.932,0,0,0,3.48,9.652c.99,1.346,1.543,1.361,1.543,1.361Z" transform="translate(-670.71 -64.954)"/><path class="ag" d="M677.82,68.12v8.688a8.426,8.426,0,0,0,.825-4.186,10.806,10.806,0,0,0-.825-4.5Z" transform="translate(-670.803 -64.956)"/><path class="ag" d="M677.82,79.55v8.688a8.426,8.426,0,0,0,.825-4.186,10.8,10.8,0,0,0-.825-4.5Z" transform="translate(-670.803 -65.152)"/><path class="ag" d="M677.585,76.97c1.114.217,1.114,2.732,0,2.5S676.464,76.734,677.585,76.97Z" transform="translate(-670.784 -65.107)"/><path class="ah" d="M681.622,83.956a11.464,11.464,0,0,0,1.052-4.747,15.118,15.118,0,0,0-1.052-5.17A11.919,11.919,0,0,0,680.57,78.8a14.753,14.753,0,0,0,1.052,5.16Z" transform="translate(-670.85 -65.058)"/><path class="ag" d="M677.368,68.03v8.688a10.9,10.9,0,0,1-.825-4.521,8.338,8.338,0,0,1,.825-4.168Z" transform="translate(-670.784 -64.954)"/><path class="ag" d="M677.368,79.46v8.688a10.9,10.9,0,0,1-.825-4.521,8.338,8.338,0,0,1,.825-4.168Z" transform="translate(-670.784 -65.151)"/><path class="ah" d="M673.532,82.326a14.332,14.332,0,0,1-1.052-5.16,11.966,11.966,0,0,1,1.052-4.766,15.112,15.112,0,0,1,1.052,5.17,11.32,11.32,0,0,1-1.052,4.757Z" transform="translate(-670.71 -65.029)"/></g></g></g></svg>