<svg xmlns="http://www.w3.org/2000/svg" width="56.257" height="42.194" viewBox="0 0 56.257 42.194"><defs><style>.a{fill:#fbfbfb;}.a,.aa,.ab,.ac,.b,.c,.d,.e,.f,.g,.h,.i,.j,.k,.l,.m,.n,.o,.p,.q,.r,.s,.t,.u,.v,.w,.x,.y{fill-rule:evenodd;}.b{fill:#f7f7f7;}.c{fill:#f3f3f3;}.d{fill:#efefef;}.e{fill:#ebebeb;}.f{fill:#e7e7e7;}.g{fill:#e4e4e4;}.h{fill:#e0e0e0;}.i{fill:#dcdcdc;}.j{fill:#d8d8d8;}.k{fill:#d4d4d4;}.l{fill:#d0d0d0;}.m{fill:#ccc;}.n{fill:#c8c8c8;}.o{fill:#c4c4c4;}.p{fill:silver;}.q{fill:#bcbcbc;}.r{fill:#b8b8b8;}.s{fill:#b4b4b4;}.t{fill:#b1b1b1;}.u{fill:#adadad;}.v{fill:#a9a9a9;}.w{fill:#a5a5a5;}.x{fill:#a1a1a1;}.y{fill:#9d9d9d;}.z{fill:#348c10;}.aa{fill:#47b71d;}.ac{fill:#ff1612;}</style></defs><g transform="translate(0 0)"><g transform="translate(0 6.263)"><path class="a" d="M1058.173,63.579a1.98,1.98,0,0,1,2.1,1.818V93.932c0,.99-.953,1.573-2.094,1.789-16.266,3.136-54.153,5.671-54.153,1.72V68.463c-.03-3.824,26.594-5.218,54.143-4.884Z" transform="translate(-1004.03 -63.531)"/><path class="b" d="M1058.2,63.789a1.958,1.958,0,0,1,2.084,1.789V93.745c0,.982-.954,1.553-2.064,1.769-16.117,3.093-53.662,5.6-53.662,1.7v-28.6C1004.53,64.841,1030.909,63.465,1058.2,63.789Z" transform="translate(-1004.039 -63.536)"/><path class="c" d="M1058.231,64a1.943,1.943,0,0,1,2.064,1.769v27.8c0,.963-.943,1.533-2.044,1.75-15.97,3.056-53.161,5.524-53.161,1.68V68.766C1005.05,65.041,1031.183,63.685,1058.231,64Z" transform="translate(-1004.048 -63.54)"/><path class="d" d="M1058.259,64.208a1.922,1.922,0,0,1,2.044,1.74v27.44c0,.953-.933,1.513-2.034,1.72-15.813,3.017-52.669,5.464-52.669,1.661V68.91c-.02-3.666,25.862-5.013,52.659-4.7Z" transform="translate(-1004.057 -63.543)"/><path class="e" d="M1058.287,64.419a1.9,1.9,0,0,1,2.025,1.72V93.216c0,.943-.924,1.494-2.015,1.7-15.666,2.978-52.167,5.4-52.167,1.641v-27.5c-.03-3.617,25.615-4.95,52.157-4.639Z" transform="translate(-1004.066 -63.546)"/><path class="f" d="M1058.313,64.629a1.88,1.88,0,0,1,2,1.7V93.042c0,.924-.915,1.474-1.995,1.68-15.518,2.939-51.677,5.321-51.677,1.621V69.219c-.03-3.577,25.377-4.894,51.667-4.589Z" transform="translate(-1004.076 -63.551)"/><path class="g" d="M1058.346,64.84a1.856,1.856,0,0,1,1.98,1.67V92.858c0,.914-.9,1.454-1.98,1.651-15.371,2.9-51.174,5.248-51.174,1.6V69.36c-.04-3.518,25.131-4.816,51.164-4.521Z" transform="translate(-1004.086 -63.554)"/><path class="h" d="M1058.373,65.049a1.831,1.831,0,0,1,1.965,1.651V92.685c0,.9-.895,1.435-1.955,1.631-15.22,2.86-50.683,5.18-50.683,1.583V69.511c-.03-3.465,24.884-4.747,50.673-4.462Z" transform="translate(-1004.093 -63.557)"/><path class="i" d="M1058.4,65.26a1.816,1.816,0,0,1,1.946,1.631V92.512c0,.885-.885,1.416-1.936,1.609-15.076,2.82-50.192,5.11-50.192,1.563V69.672C1008.19,66.242,1032.869,64.97,1058.4,65.26Z" transform="translate(-1004.102 -63.561)"/><path class="j" d="M1058.434,65.469a1.8,1.8,0,0,1,1.927,1.6V92.329c0,.885-.875,1.4-1.917,1.583-14.928,2.782-49.7,5.041-49.7,1.543V69.8c-.03-3.371,24.413-4.609,49.691-4.331Z" transform="translate(-1004.11 -63.563)"/><path class="k" d="M1058.459,65.68a1.782,1.782,0,0,1,1.907,1.583V92.146c0,.866-.875,1.361-1.9,1.563-14.781,2.742-49.2,4.963-49.2,1.523V69.955C1009.24,66.633,1033.428,65.415,1058.459,65.68Z" transform="translate(-1004.12 -63.568)"/><path class="l" d="M1058.488,65.9a1.751,1.751,0,0,1,1.9,1.563v24.52c0,.855-.866,1.361-1.877,1.543-14.634,2.7-48.707,4.894-48.707,1.5v-24.9c-.04-3.293,23.912-4.5,48.689-4.226Z" transform="translate(-1004.128 -63.572)"/><path class="m" d="M1058.517,66.106a1.732,1.732,0,0,1,1.867,1.533V91.806c0,.835-.855,1.336-1.856,1.513-14.486,2.663-48.217,4.826-48.217,1.485V70.266c-.03-3.233,23.677-4.422,48.207-4.158Z" transform="translate(-1004.137 -63.575)"/><path class="n" d="M1058.546,66.319a1.713,1.713,0,0,1,1.848,1.513V91.626c0,.825-.845,1.317-1.838,1.494-14.329,2.625-47.716,4.757-47.716,1.464V70.417c-.03-3.184,23.43-4.363,47.706-4.1Z" transform="translate(-1004.147 -63.58)"/><path class="o" d="M1058.574,66.53a1.691,1.691,0,0,1,1.828,1.494v23.43c0,.815-.835,1.287-1.818,1.474-14.182,2.585-47.225,4.688-47.225,1.445v-23.8C1011.33,67.433,1034.544,66.273,1058.574,66.53Z" transform="translate(-1004.156 -63.583)"/><path class="p" d="M1058.6,66.739a1.671,1.671,0,0,1,1.808,1.464V91.27c0,.806-.825,1.268-1.8,1.445-14.035,2.545-46.722,4.619-46.722,1.425V70.71c-.04-3.076,22.939-4.216,46.714-3.971Z" transform="translate(-1004.164 -63.587)"/><path class="q" d="M1058.631,66.949a1.649,1.649,0,0,1,1.789,1.445V91.107c0,.786-.815,1.249-1.778,1.425-13.888,2.506-46.231,4.55-46.231,1.406V70.88c-.03-3.046,22.693-4.177,46.221-3.931Z" transform="translate(-1004.173 -63.59)"/><path class="r" d="M1058.649,67.16a1.64,1.64,0,0,1,1.779,1.416V90.913c0,.776-.806,1.229-1.768,1.406-13.735,2.457-45.74,4.472-45.74,1.386V71.012c-.02-2.978,22.466-4.083,45.73-3.852Z" transform="translate(-1004.182 -63.594)"/><path class="s" d="M1058.678,67.37a1.609,1.609,0,0,1,1.76,1.4V90.741c0,.767-.806,1.209-1.75,1.386-13.592,2.428-45.239,4.4-45.239,1.361V71.173c-.03-2.939,22.212-4.039,45.229-3.8Z" transform="translate(-1004.192 -63.598)"/><path class="t" d="M1058.708,67.58a1.591,1.591,0,0,1,1.74,1.376V90.567c0,.742-.8,1.189-1.732,1.361-13.445,2.388-44.747,4.331-44.747,1.346V71.314c-.02-2.889,21.975-3.96,44.738-3.734Z" transform="translate(-1004.201 -63.601)"/><path class="u" d="M1058.746,67.789a1.584,1.584,0,0,1,1.72,1.346V90.384c0,.742-.786,1.169-1.7,1.336-13.3,2.351-44.256,4.265-44.256,1.326V71.465c-.04-2.846,21.72-3.892,44.236-3.675Z" transform="translate(-1004.21 -63.605)"/><path class="v" d="M1058.765,68a1.55,1.55,0,0,1,1.7,1.326V90.21c0,.728-.777,1.15-1.69,1.317-13.14,2.309-43.755,4.2-43.755,1.307V71.626c-.03-2.8,21.484-3.842,43.745-3.627Z" transform="translate(-1004.218 -63.608)"/><path class="w" d="M1058.794,68.2a1.529,1.529,0,0,1,1.68,1.307V90.038c0,.708-.767,1.13-1.671,1.287-12.993,2.271-43.264,4.128-43.264,1.287V71.777c-.02-2.752,21.249-3.774,43.254-3.567Z" transform="translate(-1004.227 -63.612)"/><path class="x" d="M1058.821,68.429a1.516,1.516,0,0,1,1.661,1.278V89.865c0,.7-.757,1.114-1.651,1.268-12.845,2.227-42.771,4.059-42.771,1.268V71.929c-.02-2.7,21-3.712,42.761-3.5Z" transform="translate(-1004.236 -63.615)"/><path class="y" d="M1058.85,68.631a1.5,1.5,0,0,1,1.641,1.258v19.8c0,.688-.742,1.091-1.631,1.249-12.7,2.191-42.28,3.981-42.28,1.237V72.065c-.02-2.644,20.766-3.637,42.27-3.44Z" transform="translate(-1004.245 -63.62)"/></g><path class="z" d="M1010.708,90.906c16.128-1.75,32.246,5.985,48.374,4.236a2.538,2.538,0,0,1,1.288.088c-5.435,3.685-47.022.953-50.91-3.558-.01-.01-.02-.462-.02-.471C1009.489,91.111,1009.724,91.073,1010.708,90.906Z" transform="translate(-1004.122 -57.734)"/><g transform="translate(5.307 0)"><path class="aa" d="M1009.43,91.524c16.984-3.331,33.956,6.85,50.94,3.518v-11.1c-16.982,3.331-33.956-6.85-50.94-3.518Z" transform="translate(-1009.43 -57.547)"/><path class="ab" d="M1009.43,68.934c16.984-3.331,33.956,6.85,50.94,3.518v-11.1c-16.982,3.331-33.956-6.85-50.94-3.518Z" transform="translate(-1009.43 -57.159)"/><path class="ac" d="M1009.43,80.234c16.984-3.331,33.956,6.85,50.94,3.518v-11.1c-16.982,3.331-33.956-6.85-50.94-3.518Z" transform="translate(-1009.43 -57.353)"/><g transform="translate(14.47 3.813)"><g transform="translate(0 0)"><path class="ac" d="M1034.509,65.188a8.808,8.808,0,0,1,6.389,5.6c-4.255-.742-8.521-1.69-12.776-2.438a5.426,5.426,0,0,1,6.389-3.164Zm-7.391,3.253c-.3-.226-2.762-1.867-2.959-1.249C1024,67.8,1026.774,68.362,1027.118,68.441Zm.207-.59c-.285-.247-2.625-2.084-2.88-1.494C1024.228,66.938,1026.98,67.734,1027.324,67.851Zm.265-.57c-.275-.265-2.467-2.281-2.772-1.732C1024.543,66.109,1027.245,67.131,1027.589,67.281Zm.315-.531c-.256-.285-2.291-2.467-2.643-1.946C1024.936,65.324,1027.58,66.573,1027.9,66.75Zm.363-.481c-.236-.294-2.1-2.624-2.506-2.152C1025.39,64.6,1027.944,66.073,1028.267,66.268Zm.413-.452c-.207-.314-1.9-2.762-2.34-2.339C1025.917,63.92,1028.365,65.592,1028.681,65.817Zm.452-.4c-.187-.324-1.67-2.889-2.161-2.506C1026.509,63.3,1028.838,65.168,1029.132,65.413Zm.5-.354c-.157-.334-1.444-2.978-1.966-2.663C1027.16,62.751,1029.351,64.8,1029.627,65.06Zm.531-.294c-.124-.344-1.2-3.056-1.76-2.782C1027.858,62.278,1029.9,64.489,1030.158,64.765Zm.58-.247c-.1-.344-.934-3.093-1.533-2.889C1028.625,61.855,1030.5,64.213,1030.738,64.518Zm.589-.187c-.068-.344-.678-3.126-1.3-2.97C1029.422,61.538,1031.112,64.014,1031.327,64.331Zm.619-.137c-.039-.344-.413-3.116-1.052-3.027C1030.276,61.29,1031.76,63.869,1031.946,64.193Zm.658-.069c-.01-.344-.137-3.086-.8-3.056C1031.16,61.117,1032.437,63.78,1032.6,64.124Zm.638-.02c.02-.334.124-3.037-.541-3.066C1032.044,61.038,1033.1,63.77,1033.243,64.1Zm.639.04c.049-.324.384-2.959-.286-3.046C1032.927,61.038,1033.772,63.8,1033.881,64.144Zm8.117,7.1c.3-.1,2.762-.99,2.958-.344C1045.125,71.563,1042.359,71.3,1042,71.239Zm-.207-.668c.284-.124,2.624-1.237,2.879-.609C1044.888,70.64,1042.136,70.6,1041.792,70.571Zm-.266-.648c.275-.157,2.466-1.474,2.772-.855C1044.573,69.716,1041.87,69.913,1041.526,69.922Zm-.314-.648c.255-.187,2.289-1.7,2.643-1.091C1044.179,68.811,1041.545,69.244,1041.212,69.274Zm-.364-.609c.236-.207,2.1-1.907,2.506-1.326C1043.725,67.957,1041.172,68.607,1040.848,68.665Zm-.413-.59c.207-.236,1.9-2.1,2.339-1.543C1043.207,67.112,1040.749,67.977,1040.435,68.075Zm-.452-.57c.187-.255,1.671-2.29,2.162-1.76C1042.608,66.306,1040.277,67.386,1039.983,67.5Zm-.495-.531c.157-.275,1.444-2.457,1.965-1.956C1041.964,65.548,1039.763,66.825,1039.488,66.974Zm-.531-.495c.124-.295,1.2-2.6,1.76-2.142C1041.267,64.832,1039.223,66.3,1038.957,66.479Zm-.571-.471c.1-.3.934-2.742,1.533-2.319C1040.49,64.14,1038.623,65.812,1038.387,66.007Zm-.589-.413c.078-.314.678-2.86,1.3-2.475C1039.693,63.533,1038,65.37,1037.8,65.594Zm-.629-.371c.039-.334.413-2.959,1.052-2.624C1038.84,62.962,1037.355,64.977,1037.169,65.223Zm-.649-.324c.01-.334.137-3.037.8-2.752C1037.955,62.461,1036.678,64.621,1036.521,64.9Zm-.638-.265c-.02-.344-.124-3.086.541-2.846C1037.081,62.044,1036.01,64.343,1035.882,64.634Zm-.648-.217c-.05-.344-.384-3.116.284-2.939C1036.187,61.685,1035.341,64.113,1035.234,64.417Zm-.728-.177c-.078-.344-.678-3.126,0-3.007C1035.184,61.381,1034.585,63.926,1034.506,64.24Z" transform="translate(-1024.153 -61.038)"/></g></g></g></g></svg>