<svg xmlns="http://www.w3.org/2000/svg" width="56.954" height="43.547" viewBox="0 0 56.954 43.547"><defs><style>.a{fill:#fbfbfb;}.a,.b,.c,.d,.e,.f,.g,.h,.i,.j,.k,.l,.m,.n,.o,.p,.q,.r,.s,.t,.u,.v,.w,.x,.y{fill-rule:evenodd;}.b{fill:#f7f7f7;}.c{fill:#f3f3f3;}.d{fill:#efefef;}.e{fill:#ebebeb;}.f{fill:#e7e7e7;}.g{fill:#e4e4e4;}.h{fill:#e0e0e0;}.i{fill:#dcdcdc;}.j{fill:#d8d8d8;}.k{fill:#d4d4d4;}.l{fill:#d0d0d0;}.m{fill:#ccc;}.n{fill:#c8c8c8;}.o{fill:#c4c4c4;}.p{fill:silver;}.q{fill:#bcbcbc;}.r{fill:#b8b8b8;}.s{fill:#b4b4b4;}.t{fill:#b1b1b1;}.u{fill:#adadad;}.v{fill:#a9a9a9;}.w{fill:#a5a5a5;}.x{fill:#a1a1a1;}.y{fill:#9d9d9d;}.z{fill:#026005;}.aa{fill:#49a9f6;}.ab{fill:#00840f;}.ac{fill:#fedc36;}</style></defs><g transform="translate(0 0)"><g transform="translate(0 6.459)"><path class="a" d="M378.633,243.979a2.03,2.03,0,0,1,2.129,1.868v29.464c0,1.029-.969,1.619-2.118,1.848-16.466,3.237-54.833,5.855-54.833,1.779V249.015c-.04-3.936,26.921-5.375,54.823-5.032Z" transform="translate(-323.81 -243.934)"/><path class="b" d="M378.641,244.2a2,2,0,0,1,2.108,1.848v29.094c0,1.006-.96,1.609-2.1,1.828-16.326,3.2-54.334,5.787-54.334,1.761V249.185C324.287,245.286,351,243.86,378.641,244.2Z" transform="translate(-323.811 -243.935)"/><path class="c" d="M378.664,244.409a1.988,1.988,0,0,1,2.088,1.828v28.716c0,1-.95,1.579-2.078,1.809-16.167,3.158-53.835,5.7-53.835,1.738V249.336C324.81,245.489,351.278,244.08,378.664,244.409Z" transform="translate(-323.811 -243.935)"/><path class="d" d="M378.686,244.62a1.959,1.959,0,0,1,2.068,1.8v28.336c0,.989-.94,1.559-2.058,1.779-16.017,3.117-53.339,5.645-53.339,1.718V249.476c-.02-3.786,26.2-5.175,53.325-4.856Z" transform="translate(-323.812 -243.934)"/><path class="e" d="M378.706,244.839a1.939,1.939,0,0,1,2.048,1.779v27.966c0,.969-.94,1.539-2.038,1.761-15.867,3.077-52.836,5.565-52.836,1.7V249.639c-.03-3.746,25.947-5.116,52.826-4.8Z" transform="translate(-323.812 -243.934)"/><path class="f" d="M378.724,245.05a1.917,1.917,0,0,1,2.028,1.761V274.4c0,.959-.93,1.518-2.013,1.728-15.716,3.028-52.333,5.495-52.333,1.678V249.786c-.02-3.7,25.708-5.046,52.326-4.736Z" transform="translate(-323.81 -243.935)"/><path class="g" d="M378.746,245.27A1.9,1.9,0,0,1,380.759,247V274.2c0,.95-.92,1.5-2,1.708-15.566,3-51.829,5.426-51.829,1.658V249.936c-.03-3.637,25.448-4.975,51.815-4.666Z" transform="translate(-323.812 -243.935)"/><path class="h" d="M378.766,245.479a1.866,1.866,0,0,1,1.989,1.7v26.836c0,.93-.91,1.478-1.979,1.678-15.417,2.947-51.326,5.345-51.326,1.635V250.076C327.42,246.5,352.659,245.18,378.766,245.479Z" transform="translate(-323.813 -243.936)"/><path class="i" d="M378.786,245.689a1.854,1.854,0,0,1,1.979,1.678v26.458c0,.92-.9,1.459-1.959,1.658-15.267,2.907-50.823,5.276-50.823,1.619V250.24c-.04-3.537,24.949-4.836,50.807-4.546Z" transform="translate(-323.813 -243.935)"/><path class="j" d="M378.807,245.908a1.84,1.84,0,0,1,1.959,1.658v26.088c0,.91-.889,1.439-1.939,1.635-15.117,2.868-50.327,5.206-50.327,1.589V250.4c-.04-3.5,24.71-4.78,50.307-4.486Z" transform="translate(-323.814 -243.937)"/><path class="k" d="M378.828,246.119a1.813,1.813,0,0,1,1.939,1.635v25.708c0,.889-.881,1.419-1.918,1.609-14.97,2.828-49.828,5.135-49.828,1.579v-26.1c-.04-3.437,24.459-4.706,49.808-4.426Z" transform="translate(-323.814 -243.936)"/><path class="l" d="M378.848,246.338a1.8,1.8,0,0,1,1.919,1.609v25.328c0,.881-.869,1.4-1.908,1.589-14.818,2.788-49.328,5.056-49.328,1.559V250.7c-.03-3.387,24.219-4.636,49.313-4.356Z" transform="translate(-323.815 -243.936)"/><path class="m" d="M378.869,246.55a1.776,1.776,0,0,1,1.9,1.589V273.1c0,.869-.869,1.384-1.878,1.569-14.668,2.747-48.819,4.985-48.819,1.538V250.856c-.04-3.347,23.96-4.576,48.8-4.306Z" transform="translate(-323.815 -243.936)"/><path class="n" d="M378.889,246.769a1.747,1.747,0,0,1,1.878,1.557v24.581c0,.859-.859,1.359-1.868,1.538-14.507,2.707-48.32,4.916-48.32,1.51V251c-.03-3.287,23.719-4.5,48.307-4.227Z" transform="translate(-323.816 -243.936)"/><path class="o" d="M378.9,246.98a1.727,1.727,0,0,1,1.858,1.539v24.2c0,.839-.849,1.328-1.848,1.518-14.368,2.668-47.82,4.836-47.82,1.488V251.146c-.03-3.227,23.48-4.426,47.8-4.166Z" transform="translate(-323.817 -243.937)"/><path class="p" d="M378.929,247.189a1.712,1.712,0,0,1,1.838,1.518v23.83c0,.829-.839,1.308-1.828,1.5-14.208,2.628-47.319,4.766-47.319,1.469v-24.2c-.03-3.188,23.23-4.366,47.309-4.116Z" transform="translate(-323.817 -243.938)"/><path class="q" d="M378.95,247.407a1.684,1.684,0,0,1,1.819,1.488v23.46c0,.809-.829,1.289-1.809,1.468-14.058,2.588-46.82,4.7-46.82,1.449V251.456c-.03-3.137,22.991-4.306,46.81-4.047Z" transform="translate(-323.817 -243.937)"/><path class="r" d="M378.96,247.62a1.669,1.669,0,0,1,1.8,1.469v23.08c0,.8-.819,1.269-1.789,1.449-13.908,2.547-46.321,4.626-46.321,1.429V251.607C332.63,248.52,355.4,247.38,378.96,247.62Z" transform="translate(-323.818 -243.937)"/><path class="s" d="M378.981,247.84a1.635,1.635,0,0,1,1.779,1.438v22.7c0,.789-.809,1.249-1.769,1.429-13.759,2.507-45.821,4.546-45.821,1.409v-23.05C333.15,248.72,355.68,247.6,378.981,247.84Z" transform="translate(-323.818 -243.938)"/><path class="t" d="M379.011,248.051a1.62,1.62,0,0,1,1.761,1.419V271.8c0,.77-.8,1.229-1.749,1.4-13.609,2.468-45.312,4.476-45.312,1.384V251.916c-.04-2.988,22.241-4.106,45.3-3.867Z" transform="translate(-323.818 -243.938)"/><path class="u" d="M379.022,248.26a1.606,1.606,0,0,1,1.739,1.384V271.6c0,.755-.789,1.209-1.728,1.384-13.461,2.428-44.812,4.4-44.812,1.369V252.057c-.02-2.927,22.015-4.026,44.8-3.8Z" transform="translate(-323.819 -243.938)"/><path class="v" d="M379.043,248.48a1.585,1.585,0,0,1,1.718,1.369v21.572c0,.755-.779,1.189-1.708,1.359-13.308,2.378-44.313,4.326-44.313,1.349V252.216C334.72,249.323,356.5,248.25,379.043,248.48Z" transform="translate(-323.819 -243.939)"/><path class="w" d="M379.063,248.69a1.557,1.557,0,0,1,1.7,1.349v21.2c0,.73-.77,1.169-1.688,1.328-13.159,2.339-43.813,4.256-43.813,1.318v-21.52c-.02-2.838,21.522-3.9,43.8-3.677Z" transform="translate(-323.82 -243.939)"/><path class="x" d="M379.081,248.9a1.537,1.537,0,0,1,1.678,1.318v20.822c0,.72-.77,1.148-1.668,1.308-13.009,2.3-43.313,4.187-43.313,1.308V252.516c-.02-2.778,21.271-3.827,43.3-3.607Z" transform="translate(-323.821 -243.938)"/><path class="y" d="M379.1,249.119a1.523,1.523,0,0,1,1.658,1.3v20.445c0,.709-.755,1.132-1.649,1.289-12.859,2.264-42.813,4.116-42.813,1.279V252.675c-.02-2.727,21.032-3.756,42.8-3.547Z" transform="translate(-323.821 -243.937)"/></g><path class="z" d="M330.469,271.75c16.326-1.809,32.663,6.174,48.989,4.376a2.553,2.553,0,0,1,1.3.091c-5.5,3.807-47.61.989-51.546-3.667-.01-.01-.02-.479-.02-.489C329.23,271.969,329.479,271.92,330.469,271.75Z" transform="translate(-323.814 -237.498)"/><g transform="translate(5.364 0)"><path class="aa" d="M329.18,238.17c17.2-3.437,34.381,7.074,51.578,3.637v17.185c-17.185,3.437-34.381-7.074-51.578-3.637Z" transform="translate(-329.179 -237.469)"/><path class="ab" d="M329.18,263.98c17.2-3.437,34.381,7.074,51.578,3.637v8.592c-17.185,3.437-34.381-7.074-51.578-3.637Z" transform="translate(-329.179 -237.492)"/><path class="ac" d="M380.757,267.609c-17.2,3.437-34.381-7.074-51.578-3.637v-8.593c17.2-3.437,34.381,7.074,51.578,3.637Z" transform="translate(-329.179 -237.484)"/><path class="ac" d="M372.224,253.124c.252,1.249.5,2.488.755,3.727q-.6-1.8-1.2-3.627L371.54,257c-.07-1.269-.15-2.527-.22-3.8-.4,1.179-.809,2.357-1.209,3.522.26-1.219.509-2.448.77-3.667-.7,1.019-1.4,2.013-2.1,3.008.57-1.079,1.132-2.169,1.7-3.257-.95.78-1.9,1.528-2.848,2.258q1.258-1.274,2.516-2.608-1.7.734-3.4,1.359c1.059-.56,2.108-1.159,3.168-1.779-1.239.16-2.478.279-3.717.37,1.2-.24,2.4-.52,3.6-.829-1.258-.17-2.516-.39-3.787-.629,1.258.089,2.527.15,3.787.17-1.2-.489-2.4-1.019-3.6-1.579,1.239.41,2.478.8,3.717,1.138-1.049-.77-2.108-1.579-3.158-2.408,1.132.71,2.258,1.384,3.386,2.013-.839-1.006-1.668-2.028-2.508-3.067.95.94,1.887,1.858,2.838,2.757-.56-1.169-1.12-2.339-1.678-3.522.7,1.12,1.384,2.228,2.088,3.317-.252-1.249-.5-2.508-.755-3.756.4,1.229.8,2.448,1.2,3.667l.24-3.774c.07,1.258.15,2.527.22,3.8.4-1.179.809-2.378,1.209-3.566-.26,1.239-.509,2.468-.77,3.7.7-1.039,1.4-2.088,2.1-3.158-.57,1.138-1.132,2.278-1.7,3.4q1.424-1.229,2.848-2.547c-.839.989-1.678,1.949-2.516,2.893q1.7-.825,3.4-1.789c-1.059.77-2.108,1.5-3.168,2.188q1.858-.36,3.717-.9-1.8.755-3.6,1.349c1.258.081,2.516.109,3.787.07-1.258.19-2.527.309-3.787.39q1.8.6,3.6,1.059c-1.239-.15-2.478-.36-3.717-.619,1.049.71,2.108,1.369,3.158,2-1.132-.489-2.264-1.019-3.387-1.6.839.959,1.668,1.887,2.508,2.8-.95-.789-1.887-1.619-2.838-2.478.56,1.138,1.12,2.278,1.678,3.4-.7-1.029-1.4-2.088-2.088-3.158Zm-.679-3.407a1.668,1.668,0,0,0-1.219.439,1.6,1.6,0,0,0-.5,1.179,1.822,1.822,0,0,0,.5,1.249,1.778,1.778,0,0,0,1.219.57,1.611,1.611,0,0,0,1.219-.469,1.707,1.707,0,0,0,.5-1.209,1.731,1.731,0,0,0-.5-1.219,1.791,1.791,0,0,0-1.219-.54Zm1.1.649a1.58,1.58,0,0,1,.459,1.11,1.51,1.51,0,0,1-.459,1.1,1.446,1.446,0,0,1-1.1.42,1.562,1.562,0,0,1-1.1-.509,1.664,1.664,0,0,1-.459-1.132,1.415,1.415,0,0,1,.459-1.069,1.51,1.51,0,0,1,1.1-.4,1.534,1.534,0,0,1,1.1.479Z" transform="translate(-329.209 -237.478)"/></g></g></svg>