<svg xmlns="http://www.w3.org/2000/svg" width="56.962" height="43.566" viewBox="0 0 56.962 43.566"><defs><style>.a{fill:#fbfbfb;}.a,.aa,.ab,.b,.c,.d,.e,.f,.g,.h,.i,.j,.k,.l,.m,.n,.o,.p,.q,.r,.s,.t,.u,.v,.w,.x,.y{fill-rule:evenodd;}.b{fill:#f7f7f7;}.c{fill:#f3f3f3;}.d{fill:#efefef;}.e{fill:#ebebeb;}.f{fill:#e7e7e7;}.g{fill:#e4e4e4;}.h{fill:#e0e0e0;}.i{fill:#dcdcdc;}.j{fill:#d8d8d8;}.k{fill:#d4d4d4;}.l{fill:#d0d0d0;}.m{fill:#ccc;}.n{fill:#c8c8c8;}.o{fill:#c4c4c4;}.p{fill:silver;}.q{fill:#bcbcbc;}.r{fill:#b8b8b8;}.s{fill:#b4b4b4;}.t{fill:#b1b1b1;}.u{fill:#adadad;}.v{fill:#a9a9a9;}.w{fill:#a5a5a5;}.x{fill:#a1a1a1;}.y{fill:#9d9d9d;}.z{fill:#1d7fb5;}.aa{fill:#47b71d;}.ab{fill:#49a9f6;}.ac{fill:#ffd80f;}</style></defs><g transform="translate(0 0)"><g transform="translate(0 6.478)"><path class="a" d="M880.4,243.979a2.03,2.03,0,0,1,2.128,1.868v29.464c0,1.029-.969,1.619-2.118,1.848-16.466,3.237-54.833,5.855-54.833,1.779V249.015c-.03-3.936,26.921-5.375,54.823-5.032Z" transform="translate(-825.58 -243.934)"/><path class="b" d="M880.424,244.2a2,2,0,0,1,2.108,1.848v29.094c0,1.006-.96,1.609-2.1,1.828-16.326,3.2-54.334,5.787-54.334,1.761V249.185C826.07,245.286,852.777,243.86,880.424,244.2Z" transform="translate(-825.58 -243.935)"/><path class="c" d="M880.444,244.409a1.988,1.988,0,0,1,2.088,1.828v28.716c0,1-.95,1.589-2.078,1.809-16.167,3.158-53.835,5.7-53.835,1.738V249.336C826.59,245.489,853.058,244.08,880.444,244.409Z" transform="translate(-825.581 -243.935)"/><path class="d" d="M880.466,244.62a1.966,1.966,0,0,1,2.068,1.8v28.346c0,.989-.94,1.559-2.058,1.779-16.017,3.117-53.339,5.636-53.339,1.718V249.486c-.03-3.8,26.188-5.185,53.325-4.866Z" transform="translate(-825.582 -243.934)"/><path class="e" d="M880.486,244.84a1.939,1.939,0,0,1,2.048,1.779v27.966c0,.969-.94,1.539-2.038,1.761-15.867,3.077-52.836,5.565-52.836,1.7v-28.4C827.63,245.889,853.609,244.519,880.486,244.84Z" transform="translate(-825.582 -243.934)"/><path class="f" d="M880.5,245.049a1.916,1.916,0,0,1,2.028,1.749v27.586c0,.959-.93,1.518-2.013,1.728-15.717,3.037-52.333,5.495-52.333,1.678V249.778c-.03-3.677,25.7-5.032,52.326-4.726Z" transform="translate(-825.58 -243.935)"/><path class="g" d="M880.526,245.27A1.9,1.9,0,0,1,882.539,247V274.2c0,.95-.92,1.5-2,1.708-15.566,3-51.829,5.426-51.829,1.658V249.936c-.04-3.637,25.448-4.975,51.817-4.666Z" transform="translate(-825.582 -243.935)"/><path class="h" d="M880.547,245.479a1.867,1.867,0,0,1,1.988,1.708v26.836c0,.93-.91,1.478-1.979,1.678-15.417,2.947-51.326,5.345-51.326,1.635V250.086c-.04-3.587,25.2-4.906,51.316-4.605Z" transform="translate(-825.583 -243.936)"/><path class="i" d="M880.566,245.689a1.862,1.862,0,0,1,1.979,1.678v26.458c0,.92-.9,1.459-1.959,1.658-15.267,2.907-50.823,5.276-50.823,1.619V250.24c-.04-3.537,24.949-4.836,50.807-4.546Z" transform="translate(-825.583 -243.935)"/><path class="j" d="M880.587,245.908a1.84,1.84,0,0,1,1.959,1.658v26.078c0,.909-.889,1.439-1.939,1.635-15.117,2.867-50.327,5.206-50.327,1.589V250.386c-.04-3.487,24.7-4.766,50.307-4.476Z" transform="translate(-825.584 -243.936)"/><path class="k" d="M880.608,246.119a1.819,1.819,0,0,1,1.939,1.635v25.708c0,.9-.881,1.419-1.919,1.619-14.97,2.828-49.828,5.125-49.828,1.579v-26.1c-.04-3.447,24.459-4.716,49.808-4.436Z" transform="translate(-825.584 -243.936)"/><path class="l" d="M880.614,246.338a1.8,1.8,0,0,1,1.918,1.609v25.328c0,.881-.869,1.4-1.908,1.589-14.818,2.788-49.328,5.056-49.328,1.559V250.7c-.02-3.387,24.229-4.636,49.313-4.356Z" transform="translate(-825.586 -243.936)"/><path class="m" d="M880.639,246.55a1.776,1.776,0,0,1,1.9,1.589V273.1c0,.869-.869,1.384-1.878,1.569-14.668,2.747-48.819,4.985-48.819,1.538V250.856C831.8,247.509,855.81,246.28,880.639,246.55Z" transform="translate(-825.585 -243.936)"/><path class="n" d="M880.659,246.769a1.749,1.749,0,0,1,1.878,1.557v24.581c0,.859-.859,1.359-1.868,1.549-14.507,2.707-48.318,4.916-48.318,1.51V251.006c-.03-3.3,23.73-4.506,48.307-4.237Z" transform="translate(-825.585 -243.936)"/><path class="o" d="M880.68,246.98a1.727,1.727,0,0,1,1.858,1.539v24.2c0,.839-.849,1.328-1.848,1.518-14.368,2.668-47.82,4.836-47.82,1.488V251.146c-.03-3.227,23.48-4.426,47.8-4.166Z" transform="translate(-825.586 -243.937)"/><path class="p" d="M880.7,247.189a1.72,1.72,0,0,1,1.838,1.518v23.83c0,.829-.839,1.308-1.828,1.5-14.208,2.628-47.319,4.766-47.319,1.469v-24.2c-.02-3.188,23.24-4.366,47.309-4.116Z" transform="translate(-825.586 -243.938)"/><path class="q" d="M880.72,247.406a1.691,1.691,0,0,1,1.818,1.488v23.45c0,.809-.829,1.289-1.809,1.469-14.058,2.588-46.82,4.7-46.82,1.449V251.447c-.02-3.127,22.991-4.286,46.81-4.037Z" transform="translate(-825.587 -243.938)"/><path class="r" d="M880.74,247.62a1.669,1.669,0,0,1,1.8,1.469v23.08c0,.8-.819,1.269-1.789,1.449-13.908,2.547-46.32,4.626-46.32,1.429V251.607C834.41,248.52,857.181,247.38,880.74,247.62Z" transform="translate(-825.587 -243.937)"/><path class="s" d="M880.761,247.84a1.635,1.635,0,0,1,1.779,1.439v22.7c0,.789-.809,1.249-1.769,1.429-13.759,2.507-45.821,4.546-45.821,1.409V251.756C834.93,248.718,857.45,247.6,880.761,247.84Z" transform="translate(-825.588 -243.938)"/><path class="t" d="M880.781,248.051a1.62,1.62,0,0,1,1.761,1.419v22.32c0,.77-.8,1.229-1.749,1.4-13.609,2.468-45.312,4.476-45.312,1.384V251.906c-.03-2.978,22.251-4.1,45.3-3.857Z" transform="translate(-825.588 -243.938)"/><path class="u" d="M880.8,248.26a1.607,1.607,0,0,1,1.744,1.4v21.952c0,.755-.79,1.209-1.729,1.384-13.464,2.413-44.817,4.4-44.817,1.364V252.067C835.97,249.129,858,248.03,880.8,248.26Z" transform="translate(-825.589 -243.938)"/><path class="v" d="M880.823,248.479a1.579,1.579,0,0,1,1.718,1.369V271.42c0,.755-.78,1.189-1.708,1.359-13.308,2.378-44.313,4.326-44.313,1.349v-21.91c-.03-2.893,21.763-3.956,44.3-3.736Z" transform="translate(-825.589 -243.938)"/><path class="w" d="M880.843,248.69a1.557,1.557,0,0,1,1.7,1.349v21.2c0,.73-.77,1.169-1.688,1.328-13.159,2.339-43.813,4.256-43.813,1.318v-21.52c-.03-2.838,21.512-3.9,43.8-3.677Z" transform="translate(-825.59 -243.939)"/><path class="x" d="M880.863,248.9a1.544,1.544,0,0,1,1.678,1.318v20.822c0,.72-.77,1.148-1.668,1.308-13.009,2.308-43.313,4.187-43.313,1.308V252.527c-.03-2.788,21.271-3.837,43.3-3.617Z" transform="translate(-825.59 -243.938)"/><path class="y" d="M880.883,249.119a1.524,1.524,0,0,1,1.658,1.3v20.445c0,.709-.755,1.132-1.648,1.279-12.859,2.264-42.813,4.116-42.813,1.289V252.675c-.02-2.727,21.022-3.756,42.8-3.547Z" transform="translate(-825.59 -243.937)"/></g><path class="z" d="M832.249,271.755c16.326-1.8,32.663,6.174,48.989,4.377a2.552,2.552,0,0,1,1.3.091c-5.5,3.807-47.61.989-51.546-3.677-.01-.01-.02-.479-.02-.489C831.008,271.968,831.249,271.918,832.249,271.755Z" transform="translate(-825.584 -237.478)"/><g transform="translate(5.355 0)"><path class="aa" d="M869.518,242.176c-12.859-1.369-25.718-6.594-38.578-4.025v25.717c12.859-11.141,25.718-14.478,38.578-21.691Z" transform="translate(-830.94 -237.45)"/><path class="ab" d="M843.97,272.171c12.859,1.369,25.718,6.594,38.568,4.026V250.48C869.688,261.631,856.829,264.968,843.97,272.171Z" transform="translate(-830.951 -237.462)"/><path class="ac" d="M830.94,263.871c12.859-11.141,25.718-14.488,38.578-21.691,1.239.126,2.478.23,3.717.279-14.1,8.842-28.2,11.67-42.294,23.889V263.87Zm51.6-15.879v2.478c-12.859,11.141-25.718,14.488-38.568,21.691-1.239-.126-2.478-.23-3.718-.279,14.09-8.832,28.187-11.67,42.284-23.889Z" transform="translate(-830.94 -237.454)"/><path d="M830.94,266.349c14.1-12.22,28.2-15.057,42.294-23.889a39.439,39.439,0,0,0,9.3-.659V248c-14.1,12.22-28.2,15.057-42.294,23.9a38.909,38.909,0,0,0-9.3.659v-6.2Z" transform="translate(-830.94 -237.454)"/></g></g></svg>