<svg xmlns="http://www.w3.org/2000/svg" width="56.955" height="43.547" viewBox="0 0 56.955 43.547"><defs><style>.a{fill:#fbfbfb;}.a,.ac,.ad,.ae,.af,.ag,.b,.c,.d,.e,.f,.g,.h,.i,.j,.k,.l,.m,.n,.o,.p,.q,.r,.s,.t,.u,.v,.w,.x,.y{fill-rule:evenodd;}.b{fill:#f7f7f7;}.c{fill:#f3f3f3;}.d{fill:#efefef;}.e{fill:#ebebeb;}.f{fill:#e7e7e7;}.g{fill:#e4e4e4;}.h{fill:#e0e0e0;}.i{fill:#dcdcdc;}.j{fill:#d8d8d8;}.k{fill:#d4d4d4;}.l{fill:#d0d0d0;}.m{fill:#ccc;}.n{fill:#c8c8c8;}.o{fill:#c4c4c4;}.p{fill:silver;}.q{fill:#bcbcbc;}.r{fill:#b8b8b8;}.s{fill:#b4b4b4;}.t{fill:#b1b1b1;}.u{fill:#adadad;}.v{fill:#a9a9a9;}.w{fill:#a5a5a5;}.x{fill:#a1a1a1;}.y{fill:#9d9d9d;}.z{fill:#c40000;}.aa{fill:#f90805;}.ab{fill:#fedc36;}.ac{fill:#fff;}.ae{fill:#ffd80f;}.af{fill:#ff1612;}.ag{fill:#9ca69c;}</style></defs><g transform="translate(0 0)"><g transform="translate(0 6.459)"><path class="a" d="M701.233,243.979a2.024,2.024,0,0,1,2.128,1.868v29.464c0,1.029-.969,1.629-2.118,1.848-16.466,3.237-54.833,5.855-54.833,1.779V249.015c-.04-3.936,26.921-5.375,54.823-5.032Z" transform="translate(-646.41 -243.934)"/><path class="b" d="M701.241,244.2a2,2,0,0,1,2.108,1.848v29.094c0,1.006-.959,1.6-2.1,1.828-16.316,3.2-54.334,5.787-54.334,1.761V249.185C646.887,245.286,673.6,243.86,701.241,244.2Z" transform="translate(-646.411 -243.935)"/><path class="c" d="M701.264,244.409a1.981,1.981,0,0,1,2.088,1.828v28.716c0,1-.95,1.589-2.078,1.809-16.166,3.158-53.835,5.715-53.835,1.738V249.336C647.41,245.489,673.878,244.08,701.264,244.409Z" transform="translate(-646.411 -243.935)"/><path class="d" d="M701.286,244.62a1.959,1.959,0,0,1,2.068,1.8v28.346c0,.989-.94,1.559-2.058,1.779-16.017,3.117-53.339,5.646-53.339,1.718V249.486c-.02-3.8,26.2-5.185,53.325-4.866Z" transform="translate(-646.412 -243.934)"/><path class="e" d="M701.305,244.84a1.939,1.939,0,0,1,2.048,1.779v27.966c0,.969-.94,1.539-2.038,1.761-15.867,3.077-52.836,5.565-52.836,1.7v-28.4C648.46,245.889,674.428,244.519,701.305,244.84Z" transform="translate(-646.412 -243.934)"/><path class="f" d="M701.323,245.049a1.916,1.916,0,0,1,2.028,1.749v27.586c0,.959-.93,1.518-2.013,1.728-15.716,3.037-52.333,5.495-52.333,1.678V249.778c-.02-3.677,25.708-5.032,52.325-4.726Z" transform="translate(-646.411 -243.935)"/><path class="g" d="M701.345,245.27A1.9,1.9,0,0,1,703.358,247V274.2c0,.95-.92,1.5-2,1.708-15.566,3-51.829,5.426-51.829,1.658V249.936C649.5,246.3,674.978,244.96,701.345,245.27Z" transform="translate(-646.413 -243.935)"/><path class="h" d="M701.366,245.479a1.866,1.866,0,0,1,1.989,1.7v26.836c0,.94-.91,1.478-1.979,1.678-15.417,2.957-51.326,5.345-51.326,1.635V250.076C650.02,246.5,675.259,245.18,701.366,245.479Z" transform="translate(-646.413 -243.936)"/><path class="i" d="M701.386,245.69a1.852,1.852,0,0,1,1.969,1.678v26.458c0,.92-.9,1.459-1.959,1.658-15.267,2.907-50.823,5.276-50.823,1.609V250.226c-.03-3.522,24.959-4.826,50.823-4.536Z" transform="translate(-646.413 -243.936)"/><path class="j" d="M701.407,245.908a1.84,1.84,0,0,1,1.959,1.658v26.078c0,.91-.889,1.439-1.939,1.635-15.117,2.867-50.327,5.206-50.327,1.6V250.4c-.04-3.5,24.71-4.78,50.307-4.486Z" transform="translate(-646.414 -243.937)"/><path class="k" d="M701.428,246.119a1.819,1.819,0,0,1,1.939,1.635v25.708c0,.9-.881,1.419-1.918,1.619-14.97,2.828-49.828,5.125-49.828,1.579v-26.1c-.04-3.447,24.459-4.716,49.808-4.436Z" transform="translate(-646.414 -243.936)"/><path class="l" d="M701.448,246.338a1.8,1.8,0,0,1,1.919,1.609v25.328c0,.881-.869,1.4-1.9,1.6-14.818,2.788-49.328,5.056-49.328,1.549V250.7c-.04-3.387,24.22-4.636,49.313-4.356Z" transform="translate(-646.415 -243.936)"/><path class="m" d="M701.469,246.55a1.776,1.776,0,0,1,1.9,1.589V273.1c0,.869-.859,1.384-1.887,1.569-14.668,2.747-48.819,4.985-48.819,1.538V250.856c-.03-3.347,23.97-4.576,48.81-4.306Z" transform="translate(-646.415 -243.936)"/><path class="n" d="M701.489,246.769a1.747,1.747,0,0,1,1.878,1.557v24.581c0,.859-.859,1.359-1.868,1.549-14.507,2.707-48.32,4.916-48.32,1.51V251.006c-.03-3.3,23.72-4.506,48.307-4.237Z" transform="translate(-646.415 -243.936)"/><path class="o" d="M701.51,246.98a1.727,1.727,0,0,1,1.858,1.539v24.2c0,.839-.849,1.328-1.838,1.518-14.368,2.668-47.819,4.836-47.819,1.488V251.146c-.04-3.227,23.47-4.426,47.8-4.166Z" transform="translate(-646.416 -243.937)"/><path class="p" d="M701.53,247.189a1.706,1.706,0,0,1,1.838,1.518v23.83c0,.829-.839,1.308-1.828,1.5-14.208,2.628-47.319,4.766-47.319,1.469v-24.2c-.03-3.188,23.23-4.366,47.309-4.116Z" transform="translate(-646.416 -243.938)"/><path class="q" d="M701.55,247.406a1.685,1.685,0,0,1,1.819,1.488v23.45c0,.809-.829,1.289-1.808,1.469-14.058,2.588-46.82,4.7-46.82,1.449V251.447c-.03-3.127,22.991-4.286,46.81-4.037Z" transform="translate(-646.417 -243.938)"/><path class="r" d="M701.57,247.62a1.669,1.669,0,0,1,1.8,1.469v23.08c0,.8-.819,1.269-1.789,1.449-13.918,2.547-46.321,4.626-46.321,1.429V251.607C655.23,248.52,678,247.38,701.57,247.62Z" transform="translate(-646.417 -243.937)"/><path class="s" d="M701.593,247.84a1.642,1.642,0,0,1,1.779,1.439v22.7c0,.789-.809,1.258-1.769,1.429-13.759,2.507-45.811,4.546-45.811,1.409V251.756C655.752,248.718,678.282,247.6,701.593,247.84Z" transform="translate(-646.417 -243.938)"/><path class="t" d="M701.611,248.051a1.62,1.62,0,0,1,1.761,1.419v22.32c0,.77-.8,1.229-1.749,1.409-13.609,2.458-45.312,4.476-45.312,1.384V251.916c-.04-2.988,22.241-4.106,45.3-3.867Z" transform="translate(-646.418 -243.938)"/><path class="u" d="M701.622,248.26a1.606,1.606,0,0,1,1.739,1.4v21.952c0,.755-.789,1.209-1.728,1.384-13.461,2.418-44.812,4.4-44.812,1.369v-22.3C656.8,249.129,678.835,248.03,701.622,248.26Z" transform="translate(-646.419 -243.938)"/><path class="v" d="M701.643,248.48a1.579,1.579,0,0,1,1.718,1.369v21.572c0,.755-.779,1.189-1.708,1.359-13.308,2.378-44.313,4.336-44.313,1.349V252.216c-.02-2.893,21.763-3.966,44.3-3.736Z" transform="translate(-646.419 -243.939)"/><path class="w" d="M701.663,248.689a1.557,1.557,0,0,1,1.7,1.349v21.189c0,.74-.77,1.169-1.688,1.328-13.159,2.339-43.813,4.257-43.813,1.318V252.358c-.02-2.828,21.522-3.887,43.8-3.667Z" transform="translate(-646.42 -243.938)"/><path class="x" d="M701.68,248.9a1.543,1.543,0,0,1,1.678,1.318v20.822c0,.72-.77,1.148-1.668,1.308-13.009,2.308-43.313,4.187-43.313,1.308V252.527c-.02-2.788,21.271-3.837,43.3-3.617Z" transform="translate(-646.421 -243.938)"/><path class="y" d="M701.7,249.119a1.509,1.509,0,0,1,1.659,1.3v20.445c0,.709-.755,1.132-1.649,1.279-12.859,2.264-42.813,4.116-42.813,1.289V252.675c-.02-2.727,21.032-3.756,42.8-3.547Z" transform="translate(-646.421 -243.937)"/></g><path class="z" d="M653.069,271.755c16.326-1.8,32.662,6.174,48.989,4.377a2.774,2.774,0,0,1,1.3.08c-5.5,3.807-47.61.989-51.546-3.677-.01-.01-.02-.479-.02-.489C651.83,271.968,652.079,271.918,653.069,271.755Z" transform="translate(-646.414 -237.498)"/><g transform="translate(5.365 0)"><path d="M651.78,255.355c17.2-3.437,34.381,7.074,51.578,3.637v5.725c-17.2,3.437-34.381-7.074-51.578-3.637v-5.725Zm0-17.185c17.2-3.437,34.381,7.074,51.578,3.637v5.725c-17.2,3.437-34.381-7.074-51.578-3.637Z" transform="translate(-651.78 -237.469)"/><path class="aa" d="M651.78,266.835c17.2-3.437,34.381,7.074,51.578,3.637V276.2c-17.2,3.437-34.381-7.074-51.578-3.637Zm0-17.2c17.2-3.437,34.381,7.074,51.578,3.637V259c-17.2,3.437-34.381-7.074-51.578-3.637v-5.72Z" transform="translate(-651.78 -237.479)"/><path class="ab" d="M651.78,261.095c17.2-3.437,34.381,7.074,51.578,3.637v5.735c-17.2,3.437-34.381-7.074-51.578-3.637Zm0-17.2c17.2-3.437,34.381,7.074,51.578,3.637v5.735c-17.2,3.437-34.381-7.074-51.578-3.637Z" transform="translate(-651.78 -237.474)"/><g transform="translate(20.409 14.196)"><path class="ac" d="M677.586,251.83a6.919,6.919,0,0,1,5.375,6.445,4.26,4.26,0,0,1-5.375,4.3,6.919,6.919,0,0,1-5.375-6.445,4.267,4.267,0,0,1,5.375-4.3Z" transform="translate(-672.207 -251.683)"/><g transform="translate(3.191 0.331)"><path class="ad" d="M675.727,253.7c-.02-.109.15-.14.289-.17a4.765,4.765,0,0,1,.479-.05.573.573,0,0,1,.126-.6c-.126-.24-.23-.489-.35-.73a.892.892,0,0,1,.78-.089,1.785,1.785,0,0,1,1.11.659,1.534,1.534,0,0,1,.37.819c-.18,0-.37,0-.55.01a.846.846,0,0,1-.18.58c-.21.24-.377.279-.449.5a2.515,2.515,0,0,0-.05,1.219s.1-.02.33.15.849.58.979.679.679.449.819.55a1.092,1.092,0,0,1,.269.21,3.712,3.712,0,0,1,.839.639,1.743,1.743,0,0,1,.53,1.359,1.767,1.767,0,0,1-.52,1.12c-.16.17-.669.479-.78.35,0,0-.04-.07.19-.279a.5.5,0,0,1-.15.03.133.133,0,0,1-.1-.04.165.165,0,0,1,.05-.126,2.048,2.048,0,0,1-.289.05c-.07,0-.1-.01-.109-.04s.03-.06.06-.08a.35.35,0,0,0,.05-.04.637.637,0,0,1-.126-.109.794.794,0,0,0,.59-.92.455.455,0,0,1-.319.39,1.149,1.149,0,0,0,.05-.33s-.03.05-.06,0a1.457,1.457,0,0,0-.15-.279,4.065,4.065,0,0,0-.59-.22c-.21-.07-.377-.109-.34.08a2.159,2.159,0,0,0,.2.5c.079.126.24.35.16.5s-.15.14-.309.081a4.053,4.053,0,0,0-.469-.126c-.126-.03-.19-.05-.21.15a6.112,6.112,0,0,0,.03.755c.01.175.06.6.06.6a1.269,1.269,0,0,1,.859.52s-1.289-.489-2.013.2c0,0-.2-.26.23-.55a2.436,2.436,0,0,0-.73-.18s.1-.39,1.31-.03a6.78,6.78,0,0,0-.05-.829c-.04-.32-.081-.71-.081-.71s-.35-.07-.54-.126-.479-.18-.59-.07a1.2,1.2,0,0,0-.24.41c-.03.07-.1.1-.14-.01a2.786,2.786,0,0,1-.081-.35s-.109.089-.1.57a.53.53,0,0,1-.18-.439,3.647,3.647,0,0,0-.21.41,1.918,1.918,0,0,1-.02-.609.426.426,0,0,1,.36-.39,2.4,2.4,0,0,1,.6.01,11.554,11.554,0,0,1,1.159.289,2.97,2.97,0,0,0-.02-.859s-.33-.37-.4-.479a2.546,2.546,0,0,1-.95-.881l-.06.03a2.248,2.248,0,0,1-.53-1.249,1.933,1.933,0,0,1,.5-1.289,3.6,3.6,0,0,1,.43-.41s-.22-.14-.15-.32a.378.378,0,0,1,.16-.22,2.643,2.643,0,0,1-.755-.126s.21,0,.41-.01a1.574,1.574,0,0,1,.35.02.077.077,0,0,0,.01-.06,2.535,2.535,0,0,0-.34-.03,3.481,3.481,0,0,0-.429.01c-.02-.02-.02-.02-.03,0Z" transform="translate(-675.399 -252.011)"/><path class="ae" d="M677.07,252.11c-.01.21-.03.42-.04.619a1.1,1.1,0,0,1,.755.4c.109-.14.21-.279.32-.42a1.82,1.82,0,0,0-1.039-.6Z" transform="translate(-675.402 -252.008)"/><path class="af" d="M676.6,253.868c.089.1.23.2.24.289s-.03.14-.17.16-.24-.01-.259-.14.19-.309.19-.309Zm2.013,3.987a.981.981,0,0,1,.36.109.588.588,0,0,0-.18-.26,3.089,3.089,0,0,1,.57.24,1.677,1.677,0,0,0-.24-.41s.53.34.74.479a3.1,3.1,0,0,0-.55-.73,5.617,5.617,0,0,1,.7.4,2.806,2.806,0,0,1,.809.859,1.591,1.591,0,0,1,.14,1.159,2.029,2.029,0,0,1-.5.839,1,1,0,0,1-.52.309c-.08.02-.126.02-.07-.04s.19-.22.23-.26a.779.779,0,0,0,.071-.06c-.01-.02-.03-.03-.04-.05a1.1,1.1,0,0,1-.259.14c-.091.02-.126.02-.081-.03a.608.608,0,0,1,.126-.126c-.01-.02-.02-.03-.03-.05l-.32.07c-.091.02-.15.03-.111,0s.091-.04.091-.089-.081-.06-.1-.07-.02-.02.02-.03a.942.942,0,0,0,.32-.22.992.992,0,0,0,.2-.56,1.817,1.817,0,0,0-.079-.5.089.089,0,0,1-.05.01.682.682,0,0,1-.18.639.832.832,0,0,0,.01-.4,2.207,2.207,0,0,0-.419-.71,5.038,5.038,0,0,0-.659-.669Zm-.779-4.666.3-.42a1.6,1.6,0,0,1,.34.7c-.17.01-.33.01-.5.01a.678.678,0,0,0-.14-.289Zm-1.169-.35c-.1-.22-.21-.429-.32-.649,0,0,.14-.18.649-.089-.01.21-.03.43-.04.639A.531.531,0,0,0,676.666,252.839Z" transform="translate(-675.402 -252.008)"/><path class="ag" d="M677.451,253.13a.564.564,0,0,1,.252.58.433.433,0,0,1-.459.37.184.184,0,0,1-.16-.24c.126-.21.449.07.37-.709Zm1.829,4.207c-.05-.06-.091-.126-.14-.18.126.06.24.109.36.17,0,0-.37-.24-.52-.34s-.639-.439-.869-.6-.679-.5-.8-.479-.18.19-.18.35a1.635,1.635,0,0,0,.26.92,1.745,1.745,0,0,0,.8.59,2.659,2.659,0,0,1,.889.71,3.156,3.156,0,0,1,.53.8.491.491,0,0,1,.01-.126,2.47,2.47,0,0,0-.33-.54,5.218,5.218,0,0,0-.689-.709.152.152,0,0,1-.07-.126,6.028,6.028,0,0,0-.449-.479,1.909,1.909,0,0,1-.449-.36.364.364,0,0,1-.03-.44c.091-.089.34.01.42.05s.41.269.57.377a4.3,4.3,0,0,0,.689.4Zm-1.918.06a1.381,1.381,0,0,0-.05.4,1.137,1.137,0,0,0,.07.309.62.62,0,0,1,.54.07l.03-.03a4.872,4.872,0,0,1-.59-.755Zm-.41-1.308a1.4,1.4,0,0,1-.18-.829,3.373,3.373,0,0,1,.3-.94s-.04-.05-.07-.03a3.019,3.019,0,0,0-.755,1.159,1.535,1.535,0,0,0,.06,1.249s.03-.03.05-.24c0,0,.109.126.14.1s-.03-.23-.03-.23c.06.03.126.05.18.081a2.143,2.143,0,0,0-.1-.22c.081.03.16.05.23.081-.02-.081-.05-.17-.07-.252.091.03.16.05.24.07Z" transform="translate(-675.403 -252.009)"/><path class="ac" d="M678.578,257.786a1.507,1.507,0,0,1,.3.08,2.332,2.332,0,0,0-.269-.26.078.078,0,0,0,.02-.04s.489.2.619.279a1.956,1.956,0,0,0-.33-.449.416.416,0,0,1,.18.07c.126.07.609.4.609.4-.109-.14-.21-.279-.32-.41,0,0-.36-.18-.55-.279s-.459-.279-.57-.35-.36-.269-.489-.269-.21.06-.16.23a.529.529,0,0,0,.24.309,2.38,2.38,0,0,1,.36.289c.126.14.309.33.36.4Zm-1.658-4.4a.126.126,0,0,1,.1.126.081.081,0,0,1-.1.08.118.118,0,0,1-.1-.126C676.811,253.41,676.861,253.38,676.921,253.39Z" transform="translate(-675.401 -252.009)"/></g></g></g></g></svg>