<svg xmlns="http://www.w3.org/2000/svg" width="56.956" height="43.547" viewBox="0 0 56.956 43.547"><defs><style>.a{fill:#fbfbfb;}.a,.aa,.ab,.ac,.ad,.ae,.b,.c,.d,.e,.f,.g,.h,.i,.j,.k,.l,.m,.n,.o,.p,.q,.r,.s,.t,.u,.v,.w,.x,.y{fill-rule:evenodd;}.b{fill:#f7f7f7;}.c{fill:#f3f3f3;}.d{fill:#efefef;}.e{fill:#ebebeb;}.f{fill:#e7e7e7;}.g{fill:#e4e4e4;}.h{fill:#e0e0e0;}.i{fill:#dcdcdc;}.j{fill:#d8d8d8;}.k{fill:#d4d4d4;}.l{fill:#d0d0d0;}.m{fill:#ccc;}.n{fill:#c8c8c8;}.o{fill:#c4c4c4;}.p{fill:silver;}.q{fill:#bcbcbc;}.r{fill:#b8b8b8;}.s{fill:#b4b4b4;}.t{fill:#b1b1b1;}.u{fill:#adadad;}.v{fill:#a9a9a9;}.w{fill:#a5a5a5;}.x{fill:#a1a1a1;}.y{fill:#9d9d9d;}.z{fill:#005b02;}.aa{fill:#00840f;}.ab,.ae{fill:#ef7d00;}.ad{fill:#ff1612;}.ae{stroke:#000;stroke-miterlimit:2.414;stroke-width:0.014px;}</style></defs><g transform="translate(0)"><g transform="translate(0 6.459)"><path class="a" d="M1061.463,243.979a2.024,2.024,0,0,1,2.129,1.868v29.464c0,1.029-.969,1.619-2.118,1.848-16.466,3.237-54.834,5.855-54.834,1.779V249.015c-.04-3.936,26.921-5.375,54.823-5.032Z" transform="translate(-1006.64 -243.934)"/><path class="b" d="M1061.484,244.2a2,2,0,0,1,2.109,1.848v29.094c0,1.006-.958,1.609-2.1,1.828-16.326,3.2-54.334,5.787-54.334,1.761V249.185c-.03-3.9,26.677-5.325,54.324-4.985Z" transform="translate(-1006.64 -243.935)"/><path class="c" d="M1061.5,244.409a1.988,1.988,0,0,1,2.088,1.828v28.716c0,1-.95,1.589-2.078,1.809-16.166,3.158-53.835,5.7-53.835,1.738V249.336C1007.65,245.489,1034.118,244.08,1061.5,244.409Z" transform="translate(-1006.641 -243.935)"/><path class="d" d="M1061.526,244.62a1.952,1.952,0,0,1,2.068,1.8v28.346c0,.989-.938,1.559-2.058,1.779-16.017,3.117-53.339,5.646-53.339,1.718V249.486c-.03-3.8,26.188-5.185,53.325-4.866Z" transform="translate(-1006.642 -243.934)"/><path class="e" d="M1061.546,244.84a1.939,1.939,0,0,1,2.048,1.779v27.966c0,.969-.94,1.539-2.038,1.761-15.867,3.077-52.836,5.565-52.836,1.7v-28.4C1008.69,245.889,1034.667,244.519,1061.546,244.84Z" transform="translate(-1006.641 -243.934)"/><path class="f" d="M1061.563,245.049a1.916,1.916,0,0,1,2.029,1.749v27.586c0,.959-.93,1.518-2.013,1.728-15.716,3.037-52.333,5.495-52.333,1.678V249.778c-.03-3.677,25.7-5.032,52.325-4.726Z" transform="translate(-1006.64 -243.935)"/><path class="g" d="M1061.585,245.27A1.9,1.9,0,0,1,1063.6,247V274.2c0,.95-.918,1.5-2,1.708-15.568,3-51.83,5.426-51.83,1.658V249.936c-.04-3.637,25.448-4.975,51.816-4.666Z" transform="translate(-1006.642 -243.935)"/><path class="h" d="M1061.607,245.479a1.866,1.866,0,0,1,1.987,1.7v26.836c0,.93-.91,1.478-1.979,1.678-15.417,2.957-51.326,5.345-51.326,1.635V250.076C1010.25,246.5,1035.489,245.18,1061.607,245.479Z" transform="translate(-1006.643 -243.936)"/><path class="i" d="M1061.619,245.69a1.862,1.862,0,0,1,1.979,1.678v26.458c0,.92-.9,1.459-1.959,1.658-15.267,2.907-50.823,5.276-50.823,1.609V250.226c-.04-3.522,24.959-4.826,50.807-4.536Z" transform="translate(-1006.642 -243.936)"/><path class="j" d="M1061.637,245.907a1.84,1.84,0,0,1,1.958,1.658v26.088c0,.909-.889,1.439-1.938,1.635-15.117,2.868-50.327,5.206-50.327,1.6V250.406c-.03-3.507,24.709-4.78,50.307-4.5Z" transform="translate(-1006.644 -243.936)"/><path class="k" d="M1061.658,246.119a1.819,1.819,0,0,1,1.939,1.635v25.708c0,.9-.881,1.419-1.918,1.619-14.97,2.828-49.828,5.125-49.828,1.579v-26.1c-.03-3.447,24.459-4.716,49.808-4.436Z" transform="translate(-1006.644 -243.936)"/><path class="l" d="M1061.678,246.338a1.8,1.8,0,0,1,1.919,1.609v25.328c0,.881-.869,1.4-1.9,1.589-14.818,2.788-49.328,5.056-49.328,1.559V250.7c-.03-3.387,24.219-4.636,49.313-4.356Z" transform="translate(-1006.645 -243.936)"/><path class="m" d="M1061.7,246.55a1.776,1.776,0,0,1,1.9,1.589V273.1c0,.869-.859,1.384-1.887,1.569-14.668,2.747-48.819,4.985-48.819,1.538V250.856c-.03-3.347,23.97-4.576,48.81-4.306Z" transform="translate(-1006.645 -243.936)"/><path class="n" d="M1061.721,246.769a1.749,1.749,0,0,1,1.872,1.557v24.581c0,.859-.859,1.359-1.868,1.549-14.508,2.707-48.32,4.916-48.32,1.51V251.006c-.03-3.3,23.73-4.506,48.307-4.237Z" transform="translate(-1006.647 -243.936)"/><path class="o" d="M1061.74,246.98a1.727,1.727,0,0,1,1.858,1.539v24.2c0,.839-.849,1.328-1.848,1.518-14.368,2.668-47.819,4.836-47.819,1.488V251.146c-.03-3.227,23.481-4.426,47.8-4.166Z" transform="translate(-1006.646 -243.937)"/><path class="p" d="M1061.759,247.189a1.7,1.7,0,0,1,1.838,1.518v23.83c0,.829-.839,1.308-1.828,1.5-14.208,2.628-47.319,4.766-47.319,1.469v-24.2c-.03-3.188,23.24-4.366,47.309-4.116Z" transform="translate(-1006.646 -243.938)"/><path class="q" d="M1061.78,247.406a1.684,1.684,0,0,1,1.819,1.488v23.46c0,.809-.829,1.289-1.808,1.469-14.058,2.588-46.82,4.7-46.82,1.449V251.457c-.02-3.137,22.991-4.3,46.81-4.047Z" transform="translate(-1006.647 -243.938)"/><path class="r" d="M1061.8,247.62a1.671,1.671,0,0,1,1.8,1.469v23.08c0,.8-.819,1.269-1.789,1.449-13.918,2.547-46.321,4.626-46.321,1.429V251.607c-.02-3.087,22.751-4.227,46.311-3.987Z" transform="translate(-1006.648 -243.937)"/><path class="s" d="M1061.821,247.84a1.636,1.636,0,0,1,1.779,1.439v22.7c0,.789-.809,1.249-1.769,1.429-13.759,2.507-45.811,4.546-45.811,1.409V251.767C1015.99,248.72,1038.51,247.6,1061.821,247.84Z" transform="translate(-1006.648 -243.938)"/><path class="t" d="M1061.841,248.051a1.62,1.62,0,0,1,1.761,1.419v22.32c0,.77-.8,1.229-1.749,1.409-13.609,2.458-45.322,4.476-45.322,1.384V251.916c-.02-2.988,22.266-4.106,45.312-3.867Z" transform="translate(-1006.648 -243.938)"/><path class="u" d="M1061.862,248.26a1.606,1.606,0,0,1,1.738,1.4v21.952c0,.755-.79,1.209-1.729,1.384-13.46,2.418-44.812,4.4-44.812,1.369v-22.3c-.03-2.937,22-4.037,44.8-3.807Z" transform="translate(-1006.649 -243.938)"/><path class="v" d="M1061.886,248.48a1.579,1.579,0,0,1,1.719,1.369v21.572c0,.755-.79,1.189-1.708,1.359-13.308,2.378-44.313,4.336-44.313,1.349V252.216C1017.553,249.323,1039.346,248.25,1061.886,248.48Z" transform="translate(-1006.648 -243.939)"/><path class="w" d="M1061.9,248.689a1.557,1.557,0,0,1,1.7,1.349v21.189c0,.73-.77,1.169-1.688,1.328-13.159,2.339-43.813,4.257-43.813,1.318V252.358c-.03-2.828,21.512-3.887,43.8-3.667Z" transform="translate(-1006.65 -243.938)"/><path class="x" d="M1061.924,248.9a1.544,1.544,0,0,1,1.678,1.318v20.822c0,.72-.77,1.148-1.668,1.308-13.009,2.308-43.314,4.187-43.314,1.308V252.527c-.03-2.788,21.26-3.837,43.3-3.617Z" transform="translate(-1006.65 -243.938)"/><path class="y" d="M1061.933,249.119a1.524,1.524,0,0,1,1.659,1.3v20.445c0,.709-.755,1.132-1.649,1.279-12.859,2.264-42.813,4.116-42.813,1.289V252.675c-.01-2.727,21.032-3.756,42.8-3.547Z" transform="translate(-1006.651 -243.937)"/></g><path class="z" d="M1013.309,271.755c16.326-1.8,32.653,6.174,48.989,4.377a2.551,2.551,0,0,1,1.3.091c-5.515,3.807-47.61.989-51.546-3.677-.01-.01-.02-.479-.02-.489C1012.07,271.968,1012.309,271.918,1013.309,271.755Z" transform="translate(-1006.644 -237.498)"/><g transform="translate(5.375 0)"><path class="aa" d="M1012.02,272.55c17.2-3.437,34.381,7.074,51.566,3.637v-34.38c-17.185,3.437-34.381-7.074-51.567-3.637v34.38Z" transform="translate(-1012.02 -237.469)"/><path class="ab" d="M1057.49,276.881a36.484,36.484,0,0,0,6.135-.679V254.1a36.713,36.713,0,0,1-6.135.679v22.1Z" transform="translate(-1012.058 -237.484)"/><path class="ac" d="M1051.34,276.661a48.585,48.585,0,0,0,6.145.22v-22.1a50.515,50.515,0,0,1-6.145-.22Z" transform="translate(-1012.053 -237.485)"/><path class="ad" d="M1045.2,275.821c2.048.35,4.1.649,6.135.839v-22.1c-2.048-.19-4.1-.489-6.135-.839Z" transform="translate(-1012.048 -237.484)"/><g transform="translate(34.188 7.14)"><path class="ae" d="M1052.75,246.862a1.6,1.6,0,0,1,.439-.789,1.038,1.038,0,0,1,1.329.01,1.657,1.657,0,0,1,.36.07c.19.07.289.19.2.31s-.15.126-.15.126a.163.163,0,0,0-.15-.2s0,.05-.14.06-.23.01-.3.109-.126.252.04.55a2.728,2.728,0,0,1,.989-.1c.639.03.809.04.809.04s.54-.14.91-.269a5.374,5.374,0,0,1,.689-.19,7.485,7.485,0,0,0,1.318-.42c.251-.14.289-.18.35-.126s-.04.18-.079.23-.21.22-.21.22.669-.32,1.006-.489,1.049-.56,1.14-.619.17-.126.18-.1a.816.816,0,0,1-.2.309c-.1.126-.609.57-.6.56s.126-.07.459-.279.57-.39.709-.479.289-.21.349-.17-.091.41-.309.619a4.884,4.884,0,0,1-.649.54,6.549,6.549,0,0,0,.57-.35c.34-.23.73-.55.77-.509s-.14.34-.31.52-.519.489-.519.489.259-.15.41-.23.21-.089.22-.06a2.088,2.088,0,0,1-.449.56,5.959,5.959,0,0,1-.51.449s.439-.33.5-.279-.259.41-.429.58a3.9,3.9,0,0,1-1.019.619,10.006,10.006,0,0,1-1.108.34s.03.05-.08.126a2.284,2.284,0,0,1-.679.309,5.211,5.211,0,0,1-.55.091s.279.06.26.126a1.093,1.093,0,0,1-.55.14s.2.05.16.1a.663.663,0,0,1-.41.126.944.944,0,0,1-.309-.05s.449.269.37.39-.55,0-.709-.07-.519-.252-.519-.252a.592.592,0,0,0,.16.18,1.784,1.784,0,0,0,.349.21c.079.06.126.15-.01.18a.823.823,0,0,1-.469-.081,1.617,1.617,0,0,1-.251-.15s.1.109.05.16-.23-.03-.289-.05a1.67,1.67,0,0,1-.32-.22.513.513,0,0,0,.14.252c.1.1.22.126.21.16s-.126.01-.2-.05-.18-.16-.21-.126.04.2.079.269.24.37.24.37a.829.829,0,0,1-.41-.15.813.813,0,0,0,0,.16c.01.05.04.07.126.08s.309-.01.34.2c0,0,.01.04-.04.01a.806.806,0,0,0-.18-.1.117.117,0,0,0-.109.05c-.02.04.03.06.05.07a.239.239,0,0,1,.14.289c-.04.22-.16.22-.19.23s-.04-.01-.02-.04.04-.08.02-.109-.04-.01-.079-.02a.165.165,0,0,1-.16-.1c-.04-.081-.03-.16-.09-.15s-.07.03-.07.07.03.21-.03.289-.126.089-.14.126a.169.169,0,0,0,.01.14c.02.04.01.04-.04.03a.146.146,0,0,1-.1-.14.211.211,0,0,0-.031-.14.333.333,0,0,1,0-.259c.04-.07,0-.05-.01-.04a.307.307,0,0,1-.126.126.386.386,0,0,1-.18.01.391.391,0,0,0,0,.109c.01.04,0,.06-.02.05a.225.225,0,0,1-.079-.126c-.01-.05-.02-.26-.02-.26s-.069.05-.089.06,0,.03.01.06a.414.414,0,0,1,.05.15.233.233,0,0,1-.091.21.11.11,0,0,0-.04.126.351.351,0,0,0,.04.1c.01.01.01.04-.03.01a.368.368,0,0,1-.089-.1.363.363,0,0,1-.02-.06.461.461,0,0,1-.18-.31c0-.01-.02-.02-.02,0a.388.388,0,0,1-.06.17.6.6,0,0,1-.21.1.178.178,0,0,0-.02.109c.02.06-.04.03-.06.01s-.07-.06-.06-.21a.2.2,0,0,1-.01-.24c.089-.109.079-.1.05-.089a1.028,1.028,0,0,1-.251.08,1.571,1.571,0,0,1-.23,0,.391.391,0,0,0-.07.091c-.01.03-.03,0-.03-.03a.476.476,0,0,1,.05-.252.348.348,0,0,1,.279-.19c.111-.01.289.03.39-.07a.393.393,0,0,0,.14-.279s-.126.07-.1-.03.04-.289.05-.34-.02-.06-.05-.01a.723.723,0,0,1-.18.21c-.059.03-.05.01-.05-.03a4.868,4.868,0,0,1,.091-.479c.02-.059.07-.2.079-.24s-.02-.04-.04-.01-.11.089-.1.04.03-.16.03-.16a.846.846,0,0,1-.52.04.614.614,0,0,1-.419-.21c-.06-.08.069-.15.126-.18s.111-.06.14-.081-.02-.01-.05,0-.35.07-.459.1a.736.736,0,0,1-.439.01c-.089-.06-.05-.126.01-.15a3.529,3.529,0,0,0,.33-.2c.06-.04-.01-.02-.04-.01a1.8,1.8,0,0,1-.35.14,1.242,1.242,0,0,1-.449.05c-.14-.02-.2-.05-.16-.081s.18-.1.21-.126,0-.02-.02-.01a1.655,1.655,0,0,1-.479.03c-.22-.03-.252-.06-.271-.081s-.01-.04.02-.06.15-.081.17-.089.03-.04-.03-.02a1.819,1.819,0,0,1-.459.03.92.92,0,0,1-.43-.16c-.07-.06-.109-.091-.07-.109a2.379,2.379,0,0,1,.269-.05,2.02,2.02,0,0,0,.33-.091c.05-.02.03-.04-.01-.03s-.269.03-.439.04a2.446,2.446,0,0,1-.72-.07.842.842,0,0,1-.4-.21c-.03-.03,0-.04.05-.03a.722.722,0,0,0,.252-.01l.269-.07c.04-.01.06-.04.03-.04s-.252.02-.289.02-.229,0-.37-.01a1.443,1.443,0,0,1-.469-.126.917.917,0,0,1-.26-.17c-.03-.03-.03-.06.02-.06h.31a2.2,2.2,0,0,0,.269-.04c.05-.01.03-.03,0-.03s-.309-.04-.42-.05a1.61,1.61,0,0,1-.469-.15.433.433,0,0,1-.17-.14c-.02-.04-.02-.06.04-.06h.289c.03,0-.1-.05-.23-.1a6.444,6.444,0,0,1-.7-.33,2.924,2.924,0,0,1-.55-.4,1.117,1.117,0,0,1-.269-.33c-.081-.15-.061-.18-.051-.2s.07.02.16.109a1,1,0,0,0,.2.17c.1.06.109.05.1.03s-.109-.126-.16-.19a2.273,2.273,0,0,1-.19-.279c-.04-.06-.08-.17-.05-.2s.15.081.2.126.32.269.36.309.071.01.01-.05a1.74,1.74,0,0,1-.309-.449c-.1-.24-.09-.33-.079-.37s.05-.01.109.05.3.309.36.37a2.316,2.316,0,0,0,.19.14,2.384,2.384,0,0,0,.33.21,1.793,1.793,0,0,0,.3.16c.06.01-.01-.06-.05-.1s-.26-.279-.35-.39a1.405,1.405,0,0,1-.22-.35.306.306,0,0,1-.04-.19c.01-.05.02-.07.07-.03s.251.17.4.279.755.43.91.509.439.252.56.33.42.269.479.3.06-.01,0-.07-.289-.32-.37-.43-.1-.15-.089-.18.081-.01.15.03.471.26.755.43a4.673,4.673,0,0,0,.6.32c.161.068.459.22.6.26s.459.1.74.17c.281.126.55.21.859.32Zm1.729,4.026a.3.3,0,0,1,.23-.06h.23s.06-.05.06-.07-.02-.24-.02-.269-.02-.01-.05.03-.091.07-.08,0a1.193,1.193,0,0,0-.01-.459,3.52,3.52,0,0,0-.252-.609c-.07-.126-.1-.17-.109-.19s-.03,0-.03.05-.02.36-.03.479-.02.33-.02.33a2.493,2.493,0,0,1,.051.279c-.01.07-.04.03-.07,0a.53.53,0,0,1-.1-.126c-.01-.02-.03-.02-.03.01s-.01.17-.01.279-.02.15.06.19a1.684,1.684,0,0,0,.18.126Z" transform="translate(-1046.233 -244.608)"/><g transform="translate(0.447 1.044)"><path d="M1054.506,246.28a.294.294,0,0,0,.15.05.037.037,0,0,1,.03.01.392.392,0,0,1,.109.03c-.01.01-.01.03-.02.04a.261.261,0,0,0-.1-.03c-.01,0-.02-.01-.03-.01a.494.494,0,0,1-.17-.06q.015,0,.03-.03Z" transform="translate(-1046.692 -245.661)"/><path d="M1053.72,246.09h0a.972.972,0,0,0,.279.05.187.187,0,0,0,.079-.02.053.053,0,0,0,.03-.04c-.01-.02-.01-.03-.03-.04a.113.113,0,0,0-.079-.03.339.339,0,0,0-.1.01.558.558,0,0,0-.18.07Zm0,.04a.077.077,0,0,0-.04-.01c-.01,0-.02-.01-.03-.01.01-.01.01-.02.02-.03a.453.453,0,0,1,.23-.109.484.484,0,0,1,.126-.01.3.3,0,0,1,.1.04.163.163,0,0,1,.04.07h0v.01a.118.118,0,0,1-.05.07.291.291,0,0,1-.1.03.928.928,0,0,1-.289-.05Z" transform="translate(-1046.691 -245.661)"/><path d="M1054.161,246.821a.9.9,0,0,0,.089.16.926.926,0,0,0,.139.14.268.268,0,0,1,.061.05,1.826,1.826,0,0,1,.32.289,2.264,2.264,0,0,1,.21.269.584.584,0,0,0,.08.11,5.12,5.12,0,0,0,.6.57l.01.01h0l.03.03c.089.07.269.22.41.309.08.05.15.091.22.126a1.615,1.615,0,0,0,.18.1.583.583,0,0,0,.21.06c.1.02.2.03.289.04a.827.827,0,0,0,.239-.01h0c.02,0,.03-.01.05-.01h.01a.165.165,0,0,0-.061-.03c-.04-.02-.22-.109-.39-.2s-.32-.18-.377-.22-.271-.18-.459-.3c-.16-.1-.309-.2-.36-.23a1.179,1.179,0,0,1-.16-.126c.01-.01.01-.02.02-.03s.05.03.16.109c.05.03.2.126.36.23.19.126.4.252.459.3s.22.126.377.22c.18.089.35.18.39.2a.188.188,0,0,1,.079.04c.01.01.01.01.01.02a.036.036,0,0,1-.01.03.074.074,0,0,1-.051.01.439.439,0,0,0-.051.01h0a1.634,1.634,0,0,1-.252.01,1.549,1.549,0,0,1-.289-.04,1.125,1.125,0,0,1-.219-.07,1.624,1.624,0,0,1-.18-.1,1.808,1.808,0,0,1-.22-.126c-.14-.091-.32-.24-.41-.309-.02-.02-.03-.02-.03-.03h0l-.01-.01a4.027,4.027,0,0,1-.61-.58c-.031-.05-.06-.08-.081-.109a2.259,2.259,0,0,0-.21-.269,1.685,1.685,0,0,0-.309-.279c-.02-.01-.03-.03-.06-.04a.464.464,0,0,1-.14-.14.615.615,0,0,1-.1-.17c.01-.01.02-.01.03-.02Z" transform="translate(-1046.692 -245.663)"/><path d="M1056.129,248.332s.469.21.755.33c.14.06.279.109.419.16a2.334,2.334,0,0,0,.459.081c.31.02.4-.07.449-.126h0c.02-.02.03-.03.02-.04a.159.159,0,0,0-.08-.03,1.086,1.086,0,0,0-.17-.03,5.374,5.374,0,0,1-.6-.14,3.344,3.344,0,0,1-.41-.16,2.268,2.268,0,0,1-.309-.15,2.784,2.784,0,0,1-.251-.15c-.1-.06-.18-.126-.229-.15-.091-.07-.24-.21-.24-.21l.03-.03a2.613,2.613,0,0,0,.239.2,2.334,2.334,0,0,0,.23.15,1.494,1.494,0,0,0,.251.14,2.232,2.232,0,0,0,.309.14c.16.07.309.126.41.16.126.04.4.1.59.14.081.01.14.03.17.03a.187.187,0,0,1,.111.05c.01.03.01.05-.03.089h0c-.05.06-.16.17-.489.14a2.434,2.434,0,0,1-.469-.081,2.224,2.224,0,0,1-.43-.16c-.279-.126-.755-.33-.755-.33l.02-.02Z" transform="translate(-1046.692 -245.66)"/><path d="M1056.95,249.08a.46.46,0,0,0,.071.04,1.006,1.006,0,0,0,.3.126,3.929,3.929,0,0,0,.489.07.06.06,0,0,1-.01.04s-.269-.03-.489-.07a.981.981,0,0,1-.309-.126.917.917,0,0,1-.09-.05c.01-.01.031-.02.04-.03Z" transform="translate(-1046.693 -245.663)"/><path d="M1057.43,248.94a2.642,2.642,0,0,0,.33.081c.126.02.26.03.37.04a.061.061,0,0,0-.01.04,2.469,2.469,0,0,1-.36-.04c-.15-.03-.279-.06-.34-.081,0-.02.01-.03.01-.04Z" transform="translate(-1046.694 -245.663)"/><path d="M1058.241,248.7a4.823,4.823,0,0,1,.609-.1h.04c.17-.02.49-.081.49-.081a.229.229,0,0,1,.01.04,4.224,4.224,0,0,1-.5.081.06.06,0,0,0-.04.01,3.5,3.5,0,0,0-.6.089c0-.01-.01-.03-.01-.04Z" transform="translate(-1046.695 -245.662)"/><path d="M1057.541,248.188a4.328,4.328,0,0,0,.53.07,4.714,4.714,0,0,0,.755.01,5.155,5.155,0,0,0,.77-.126,5.068,5.068,0,0,0,.79-.269c.159-.07.39-.2.6-.32s.39-.24.489-.309c.01.01.01.02.02.03-.1.07-.289.2-.489.32a6.641,6.641,0,0,1-.61.32,5.071,5.071,0,0,1-.79.269,3.445,3.445,0,0,1-.77.126,4.823,4.823,0,0,1-.768-.01c-.22-.02-.4-.05-.54-.07,0-.02.01-.03.01-.04Z" transform="translate(-1046.695 -245.66)"/><path d="M1060.02,247.489s.839-.37,1.239-.609a4.51,4.51,0,0,0,.539-.36c.01.01.02.02.02.03a3.656,3.656,0,0,1-.539.37c-.4.24-1.239.61-1.239.61-.01-.02-.02-.03-.02-.04Z" transform="translate(-1046.696 -245.661)"/><path d="M1058.47,247.688s.8-.279,1.349-.52a13.742,13.742,0,0,0,1.458-.8c.01.01.01.03.02.04a13.184,13.184,0,0,1-1.469.8c-.55.24-1.349.52-1.349.52a.1.1,0,0,1-.01-.04Z" transform="translate(-1046.695 -245.66)"/><path d="M1058.85,247.029a5.413,5.413,0,0,0,1.069-.41,4.337,4.337,0,0,0,.881-.56l.03.03a3.918,3.918,0,0,1-.889.56,5.153,5.153,0,0,1-1.069.42.052.052,0,0,1-.02-.04Z" transform="translate(-1046.695 -245.66)"/><path d="M1056.091,247.812a2.558,2.558,0,0,0,.669.269,1.154,1.154,0,0,0,.7-.02c-.126-.07-.52-.269-.6-.32-.04-.03-.06-.04-.07-.05a.019.019,0,0,1,0-.03c0-.01.01-.01.02-.02a.059.059,0,0,1,.039.01.366.366,0,0,0,.126.05,2.222,2.222,0,0,0,.329.07c.15.02.29.03.411.04h.329a.417.417,0,0,0,.18-.03c.01-.01.01-.01.02-.01h0a.137.137,0,0,0-.041-.03,1.845,1.845,0,0,0-.24-.07c-.11-.03-.22-.05-.281-.07a.432.432,0,0,1-.05-.01c-.04-.02-.03-.03,0-.04h.02a.712.712,0,0,1,.14.01c.04.01.14.02.24.03a1.38,1.38,0,0,0,.279.01.455.455,0,0,0,.15-.04.035.035,0,0,0,.02-.01h0a.108.108,0,0,0-.05-.03,1.106,1.106,0,0,0-.23-.07c-.02,0-.04-.01-.06-.01a.053.053,0,0,1-.04-.02h0a.019.019,0,0,1,0-.03c.01,0,.01-.01.02-.01a.17.17,0,0,1,.07.01.919.919,0,0,0,.26.03,1.772,1.772,0,0,0,.31-.02.739.739,0,0,0,.34-.126.865.865,0,0,0,.126-.126.032.032,0,0,0,.01-.02c-.01-.01-.05,0-.126.01a2.078,2.078,0,0,1-.291.02c-.18,0-.377-.02-.49-.03a.147.147,0,0,1-.07-.01,1.068,1.068,0,0,1-.479-.1l.03-.03a1.482,1.482,0,0,0,.459.091c.02,0,.05.01.069.01.111.01.309.03.489.03a1.064,1.064,0,0,0,.281-.02.3.3,0,0,1,.16-.01c.03.02.03.05,0,.079a.572.572,0,0,1-.14.14.908.908,0,0,1-.36.126,1.883,1.883,0,0,1-.32.02.374.374,0,0,1-.11-.01.693.693,0,0,1,.1.04.592.592,0,0,0,.07.04.046.046,0,0,1,0,.05l-.03.03a.6.6,0,0,1-.17.04,1.494,1.494,0,0,1-.289-.01.484.484,0,0,0-.126-.01.09.09,0,0,0,.05.01,1.326,1.326,0,0,1,.239.081.16.16,0,0,1,.061.04.031.031,0,0,1,0,.04l-.03.03a.489.489,0,0,1-.2.03c-.1,0-.21.01-.33,0s-.259-.02-.41-.04a1.317,1.317,0,0,1-.33-.08h-.01c.18.1.57.3.58.3a.076.076,0,0,1,.04.02c-.01.01-.03.01-.04.02a1.257,1.257,0,0,1-.768.04,2.732,2.732,0,0,1-.679-.279c.01-.02.01-.03.02-.04Z" transform="translate(-1046.694 -245.665)"/><path d="M1054.969,247.721a.5.5,0,0,0,.16.05,1.485,1.485,0,0,0,.22.02.817.817,0,0,0,.18-.02.013.013,0,1,0,0-.02c-.07-.04-.079-.06-.07-.07s.02-.01.04-.01h0a.076.076,0,0,1,.04.01,1.58,1.58,0,0,0,.27.03h.2c.05-.01.091-.01.091-.02,0-.03-.081-.07-.126-.089l-.01-.01c-.01,0-.01-.01-.02-.01-.02-.02-.01-.03.02-.04h.02a.449.449,0,0,1,.109.03,1.3,1.3,0,0,0,.17.02c.126.01.26.01.329.01a.269.269,0,0,0,.11-.02l.01-.01h0c0-.01-.01-.01-.03-.02a.424.424,0,0,1-.1-.06.087.087,0,0,1-.04-.07c.01-.03.05-.03.17-.02h.02a1.906,1.906,0,0,0,.24,0,.71.71,0,0,0,.259-.06c.03-.02.05-.03.06-.05a.037.037,0,0,0,.01-.03c0-.01-.01-.02-.01-.03s-.02-.01-.03-.02-.03-.01-.03-.02-.01-.01-.01-.02h0a.021.021,0,0,1,.02-.02c.01-.01.02-.01.051-.01s.089-.01.16-.02a1.49,1.49,0,0,0,.18-.04c.05-.02.126-.03.18-.05.15-.04.309-.08.439-.126.081-.03.261-.1.43-.17.22-.1.459-.2.519-.23.01.01.01.03.02.04-.071.03-.3.14-.53.23-.18.07-.35.14-.43.17a3.8,3.8,0,0,1-.439.126c-.07.02-.126.03-.18.05-.07.02-.14.03-.19.04a1.372,1.372,0,0,1-.16.02c.01.01.02.01.03.02a.078.078,0,0,1,.02.05.128.128,0,0,1-.01.06.268.268,0,0,1-.079.06.715.715,0,0,1-.271.07,2.051,2.051,0,0,1-.251,0h-.02c-.091-.01-.126-.01-.126-.01l.02.02a.285.285,0,0,0,.1.06.213.213,0,0,1,.05.04.031.031,0,0,1,0,.04c-.01.01-.01.02-.03.03a.355.355,0,0,1-.126.03c-.071,0-.22,0-.34-.01-.07,0-.14-.01-.17-.01.03.02.06.05.06.081s-.06.05-.126.06a.668.668,0,0,1-.2,0,1.539,1.539,0,0,1-.24-.02l.03.03a.025.025,0,0,1-.01.04c-.01.01-.02.02-.03.02a.493.493,0,0,1-.2.03,1.383,1.383,0,0,1-.22-.02.578.578,0,0,1-.14-.04c-.01-.01-.03-.01-.04-.02-.02-.06-.01-.07,0-.081ZM1055.539,247.751ZM1055.539,247.751Z" transform="translate(-1046.69 -245.663)"/><path d="M1057.5,248.04c.06,0,.18,0,.309-.01a2.391,2.391,0,0,0,.281-.03v.04l-.281.03c-.126.01-.251.01-.309.01C1057.491,248.07,1057.491,248.06,1057.5,248.04Z" transform="translate(-1046.694 -245.661)"/><path d="M1057.226,249.529c-.04-.02-.08-.05-.126-.07a1.609,1.609,0,0,1-.17-.109c-.1-.07-.319-.279-.319-.279l.03-.03a3.534,3.534,0,0,0,.309.279c.05.04.126.07.17.109a.543.543,0,0,0,.126.07.043.043,0,0,0-.01.03Z" transform="translate(-1046.693 -245.662)"/><path d="M1055.549,249.819a2.053,2.053,0,0,1-.08-.2,1.334,1.334,0,0,0-.061-.16,1.935,1.935,0,0,1-.1-.2.848.848,0,0,0-.06-.109.716.716,0,0,0-.089-.109.384.384,0,0,0-.079-.089,1.334,1.334,0,0,1-.126-.14l.03-.03.126.14a.962.962,0,0,1,.089.1c.03.04.071.081.091.109a.7.7,0,0,1,.069.109,1.871,1.871,0,0,1,.1.2,1.355,1.355,0,0,1,.06.16c.03.07.05.14.071.19a.14.14,0,0,1-.04.03Z" transform="translate(-1046.69 -245.662)"/><path d="M1055.23,249.079c.02.01.11.07.18.109s.126.07.17.1a1.244,1.244,0,0,0,.3.126.184.184,0,0,0,.15,0c.05-.05-.279-.41-.279-.41l.03-.03s.36.39.279.469a.231.231,0,0,1-.19.01,2.036,2.036,0,0,1-.31-.126c-.05-.03-.109-.07-.17-.1a1.5,1.5,0,0,0-.16-.1v-.05Z" transform="translate(-1046.691 -245.662)"/><path d="M1055.46,248.62a.609.609,0,0,0,.089.126,1.443,1.443,0,0,0,.14.16,1.02,1.02,0,0,1,.089.07.646.646,0,0,0,.126.07c.04.02.1.06.17.1a2.873,2.873,0,0,0,.309.18.62.62,0,0,0,.16.04h0c.091.01.17.02.21.02a.038.038,0,0,0,.03-.01h0v-.01c-.01-.01-.02-.03-.03-.04a1.841,1.841,0,0,1-.14-.126c-.06-.055-.15-.126-.18-.15a.3.3,0,0,1-.081-.081.627.627,0,0,1-.06-.1.06.06,0,0,1,.04-.01c.01.02.03.05.05.091a.467.467,0,0,0,.07.07c.04.03.109.089.18.15a.873.873,0,0,1,.139.126l.05.05a.037.037,0,0,1,.01.03c0,.01-.01.02-.02.03a.075.075,0,0,1-.05.01c-.04,0-.126-.01-.22-.02h0c-.06-.01-.126-.03-.17-.04a2.99,2.99,0,0,1-.309-.18c-.069-.04-.126-.081-.16-.1a1.333,1.333,0,0,1-.126-.07c-.04-.03-.079-.05-.089-.07a1.647,1.647,0,0,1-.15-.17.468.468,0,0,1-.089-.14c-.02,0-.01,0,.01-.01Z" transform="translate(-1046.692 -245.663)"/><path d="M1055.41,250.53a.639.639,0,0,1-.2-.21c-.03-.04-.04-.081-.06-.109s-.03-.06-.04-.06l.01.01c0,.01-.01.03-.01.04-.01.03-.01.05-.02.089a.01.01,0,0,1-.01.01.855.855,0,0,1-.079.2c-.01-.01-.02-.01-.03-.02a.76.76,0,0,0,.079-.19v-.01c.01-.03.01-.05.02-.081a.112.112,0,0,0,.01-.05.035.035,0,0,1,.05-.03c.03.01.03.03.06.081.01.03.03.06.05.109a.693.693,0,0,0,.19.2c-.01,0-.01.01-.02.02Z" transform="translate(-1046.692 -245.664)"/><path d="M1055.14,248.61c-.01-.08-.02-.17-.03-.26a1.579,1.579,0,0,0-.05-.23,1.412,1.412,0,0,1-.04-.269v-.01h.04v.01a1.241,1.241,0,0,0,.04.259c.02.07.03.15.05.23a2.556,2.556,0,0,1,.03.26.058.058,0,0,1-.039.01Z" transform="translate(-1046.692 -245.662)"/><path d="M1054.26,248.33a1.708,1.708,0,0,0,.081.2c.04.06.089.126.126.17a.214.214,0,0,0,.05.04.649.649,0,0,1,.24.37.06.06,0,0,1-.04.01.661.661,0,0,0-.22-.35c-.02-.01-.03-.03-.05-.04a.867.867,0,0,1-.14-.18.887.887,0,0,1-.089-.2c.02-.01.03-.02.04-.02Z" transform="translate(-1046.691 -245.662)"/><path d="M1054.45,249.27h0a.392.392,0,0,0-.19-.32,1,1,0,0,0-.21-.1c-.06-.03-.126-.05-.2-.089a1.135,1.135,0,0,1-.24-.18.817.817,0,0,0-.069.289.061.061,0,0,1-.04-.01,1.077,1.077,0,0,1,.089-.33c0-.01.01-.02.01-.03l.02.02a1.222,1.222,0,0,0,.26.19c.071.04.126.06.19.091s.14.06.22.1a.413.413,0,0,1,.21.34h0a.055.055,0,0,1-.05.03Z" transform="translate(-1046.69 -245.662)"/><path d="M1053.558,249.5a.422.422,0,0,0,.05-.16.333.333,0,0,0-.01-.17,1.258,1.258,0,0,0-.089-.252c-.01-.01-.01-.02-.02-.04-.02-.04-.05-.1-.079-.15a1.341,1.341,0,0,0-.14-.2,1.258,1.258,0,0,0-.126-.16.857.857,0,0,1-.36.18,1.438,1.438,0,0,1-.18.01.094.094,0,0,1-.069-.02.079.079,0,0,1-.04-.04.128.128,0,0,1,.03-.07c.02-.03.069-.08.109-.126l.14-.16a1.318,1.318,0,0,1,.1-.109.778.778,0,0,1-.17-.24.449.449,0,0,1-.05-.19.666.666,0,0,1,0-.2c.01-.04.03-.1.05-.16a.446.446,0,0,0,.04-.16h.04a.581.581,0,0,1-.051.17c-.02.06-.04.126-.05.16a.7.7,0,0,0,.051.37.728.728,0,0,0,.18.24c.01,0,.01.01.02.01l-.01.01a1.133,1.133,0,0,1-.126.126c-.03.03-.091.1-.14.16a.96.96,0,0,0-.109.126c-.02.03-.02.04-.02.05a.01.01,0,0,1,.01.01.362.362,0,0,0,.06.01,1.319,1.319,0,0,0,.17-.01.793.793,0,0,0,.35-.18l.01-.01.01.01s.089.1.15.18c.03.05.089.126.14.21a.6.6,0,0,1,.079.16c.01.01.01.03.02.04a1.156,1.156,0,0,1,.09.26.547.547,0,0,1,.01.18.644.644,0,0,1-.05.17c.01-.02-.01-.03-.02-.03Z" transform="translate(-1046.688 -245.661)"/><path d="M1052.748,247.809c-.01,0-.03.02-.05.03a2.717,2.717,0,0,1-.51.32,1.161,1.161,0,0,1-.459.109,1.081,1.081,0,0,1-.259-.04.455.455,0,0,1-.1-.05c-.01-.01-.02-.01-.02-.02a.03.03,0,0,1,0-.04.074.074,0,0,1,.03-.02c.03-.01.22-.126.41-.22.15-.091.289-.17.34-.2.02-.01.03-.02.05-.03a2.545,2.545,0,0,0,.36-.279c.14-.14.2-.19.2-.19.01.02.01.03.02.05,0,0-.05.04-.19.17a3.6,3.6,0,0,1-.36.279c-.02.01-.03.03-.05.03l-.35.21c-.19.109-.377.21-.41.23h-.01l.01.01a.4.4,0,0,0,.089.04.573.573,0,0,0,.24.04,1.12,1.12,0,0,0,.449-.109,2.132,2.132,0,0,0,.5-.32.264.264,0,0,0,.051-.04c0,.01.01.02.02.04Z" transform="translate(-1046.689 -245.662)"/><path d="M1052.91,246.96a.235.235,0,0,1-.17-.091c.01-.01.02-.01.03-.02.03.05.126.06.126.06a.123.123,0,0,1,.01.05Z" transform="translate(-1046.69 -245.661)"/><path d="M1055.96,249.761a.652.652,0,0,0,.14.109c.03.02.05.04.069.05l-.03.03a.651.651,0,0,0-.071-.05.628.628,0,0,1-.14-.126c.01-.01.02-.02.03-.02Z" transform="translate(-1046.693 -245.665)"/><path d="M1056.27,249.48c.03.02.126.089.126.089l-.03.03a.875.875,0,0,0-.126-.091l.03-.03Z" transform="translate(-1046.693 -245.664)"/><path d="M1057.38,247.49a.4.4,0,0,0,.089.04c.071.02.15.03.18.04,0,.01-.01.03-.01.04-.039-.01-.126-.02-.19-.04a.226.226,0,0,1-.11-.05.141.141,0,0,0,.04-.03Z" transform="translate(-1046.693 -245.661)"/><path d="M1057.89,247.32a.688.688,0,0,0,.126.03c.06.02.14.03.17.04,0,.01-.01.03-.01.04-.04-.01-.109-.02-.18-.04a.539.539,0,0,1-.126-.04C1057.88,247.34,1057.88,247.33,1057.89,247.32Z" transform="translate(-1046.694 -245.662)"/><path d="M1055.34,247.61l.1.03a.493.493,0,0,1,.071.03l-.03.03c-.01-.01-.03-.01-.05-.02a.637.637,0,0,0-.1-.03C1055.34,247.64,1055.34,247.63,1055.34,247.61Z" transform="translate(-1046.692 -245.661)"/><path d="M1055.8,247.45a1.319,1.319,0,0,0,.16.07.06.06,0,0,0-.01.04.738.738,0,0,1-.17-.081c.01-.01.01-.02.02-.03Z" transform="translate(-1046.691 -245.661)"/><path d="M1056.452,247.32a.262.262,0,0,0,.089.05.06.06,0,0,1-.01.04.278.278,0,0,1-.126-.06c.03-.01.04-.01.04-.03Z" transform="translate(-1046.694 -245.662)"/><path d="M1057.05,247.109a.816.816,0,0,1,.18.01v.04s-.126-.01-.18-.01C1057.06,247.129,1057.06,247.119,1057.05,247.109Z" transform="translate(-1046.694 -245.661)"/><path d="M1054.37,251.1a.375.375,0,0,1,.01-.109.22.22,0,0,1,.089-.109c.01.01.01.03.02.04a.154.154,0,0,0-.079.081.345.345,0,0,0-.01.1c0,.01-.01.01-.03,0Z" transform="translate(-1046.691 -245.664)"/><path d="M1053.83,250.529a1.267,1.267,0,0,0,.15-.2.588.588,0,0,0,.089-.19.086.086,0,0,1,.02-.06l.02-.02c.01-.01.02,0,.03,0a.072.072,0,0,1,.02.03c.01.02.03.05.05.091a.4.4,0,0,0,.071.1c-.01.01-.02.01-.03.02a1.049,1.049,0,0,0-.071-.1.885.885,0,0,1-.05-.089v-.01c0,.01-.01.02-.01.04a.9.9,0,0,1-.1.2,2.4,2.4,0,0,1-.15.21.051.051,0,0,1-.04-.02Z" transform="translate(-1046.691 -245.664)"/><path d="M1053.859,249.65a.926.926,0,0,1-.01.23,1,1,0,0,1-.05.27c-.01-.01-.03-.01-.04-.02a1.6,1.6,0,0,0,.04-.252,1.868,1.868,0,0,0,.01-.22.136.136,0,0,1,.05-.01Z" transform="translate(-1046.691 -245.664)"/><path d="M1053.759,249.479a.57.57,0,0,1-.059.15c-.01-.01-.02-.01-.03-.02a.43.43,0,0,0,.051-.126.03.03,0,0,1,.04,0Z" transform="translate(-1046.69 -245.662)"/><path d="M1053.209,248.96a1.616,1.616,0,0,1-.21.089.787.787,0,0,1-.126.04.059.059,0,0,0-.01-.04c.01,0,.06-.02.126-.04a1.62,1.62,0,0,0,.21-.089.075.075,0,0,1,.02.04Z" transform="translate(-1046.688 -245.663)"/><path d="M1052.59,248.7l-.3.15c-.01-.01-.01-.03-.02-.04l.3-.15A.053.053,0,0,1,1052.59,248.7Z" transform="translate(-1046.689 -245.662)"/><path d="M1051.48,248.778c.126-.05.34-.15.489-.22a.564.564,0,0,0,.079-.04c.071-.03.17-.081.269-.126s.22-.109.26-.126c.06-.03.15-.07.15-.07l.02.04s-.079.04-.15.07c-.03.02-.14.07-.259.126-.1.05-.21.1-.269.126a.573.573,0,0,0-.079.04c-.15.07-.37.17-.489.22-.01-.01-.01-.03-.02-.04Z" transform="translate(-1046.688 -245.661)"/><path d="M1050.91,248.55l.16-.06a1.422,1.422,0,0,0,.18-.081,1.1,1.1,0,0,0,.16-.1.4.4,0,0,0,.091-.1c.01.01.02.01.03.02a.445.445,0,0,1-.089.109,1.116,1.116,0,0,1-.16.109,1.4,1.4,0,0,1-.18.08c-.06.02-.11.04-.16.06-.02-.01-.02-.02-.03-.04Z" transform="translate(-1046.688 -245.663)"/><path d="M1050.541,248.14a.436.436,0,0,0,.1-.05c.01.01.01.02.02.04a.522.522,0,0,1-.126.05c.01-.01,0-.03,0-.04Z" transform="translate(-1046.689 -245.662)"/><path d="M1049.55,247.769a.126.126,0,0,0,.06-.01,2.679,2.679,0,0,0,.459-.089c.01.01.01.03.02.04a3.021,3.021,0,0,1-.469.091.353.353,0,0,0-.061.01c0-.01-.01-.02-.01-.04Z" transform="translate(-1046.688 -245.662)"/><path d="M1048.79,247.339c.069,0,.629-.1.629-.1a.06.06,0,0,1,.01.04,6.235,6.235,0,0,1-.639.1Z" transform="translate(-1046.686 -245.661)"/><path d="M1048.02,246.93a2.719,2.719,0,0,0,.649-.02c0,.01.01.03.01.04a2.877,2.877,0,0,1-.35.02,2.368,2.368,0,0,1-.319-.01c.01,0,.01-.02.01-.03Z" transform="translate(-1046.686 -245.661)"/><path d="M1047.78,245.71c.079.05.259.16.43.252.05.03.1.05.14.081.2.109.679.377.679.377a.143.143,0,0,1-.02.04c-.01.01-.469-.269-.669-.39a.918.918,0,0,0-.14-.07c-.18-.1-.36-.2-.43-.252a.074.074,0,0,1,.01-.04Z" transform="translate(-1046.685 -245.66)"/><path d="M1046.89,245.66c.071.05.14.1.22.15s.16.089.229.14c.05.03.26.14.51.269.439.23.989.509,1.069.55a.059.059,0,0,0-.01.04c-.08-.04-.639-.32-1.069-.55-.251-.126-.459-.24-.51-.269-.069-.04-.15-.091-.229-.14s-.15-.1-.22-.15C1046.88,245.68,1046.89,245.67,1046.89,245.66Z" transform="translate(-1046.685 -245.66)"/><path d="M1046.7,245.88a1.357,1.357,0,0,0,.18.126c.109.06.251.126.329.17s.27.14.439.24c.139.07.26.14.329.18.16.08.329.16.329.16a.229.229,0,0,0-.01.04,2.6,2.6,0,0,1-.33-.16,3.059,3.059,0,0,1-.329-.18c-.17-.089-.35-.19-.439-.23s-.22-.109-.34-.18a.8.8,0,0,1-.18-.126.053.053,0,0,1,.02-.04Z" transform="translate(-1046.684 -245.66)"/><path d="M1049.562,246.08a.849.849,0,0,0,.14.1c.07.04.17.1.251.14a2.608,2.608,0,0,0,.289.14c.091.04.17.081.24.109.091.03.17.05.22.07.03.01.05.01.06.02s.03.01.03.02a.037.037,0,0,1,.01.03c0,.01-.01.02-.01.03a.226.226,0,0,1-.05.03c-.02.01-.04.01-.05.02a.051.051,0,0,1-.03.01c0,.01.01,0,.03.01a.39.39,0,0,0,.126.05,1.64,1.64,0,0,0,.18.05.617.617,0,0,0,.126.01h.1c.05,0,.071.01.06.04s-.02.03-.04.05a.214.214,0,0,1-.05.04c-.03.02-.05.03-.05.04a.4.4,0,0,0,.16.03h.02a.707.707,0,0,0,.21,0c.06-.01.126-.01.17-.02s.06-.01.069.01-.02.05-.05.08l-.03.03-.03.03a.14.14,0,0,0-.02.03.01.01,0,0,1,.01-.01c.07.01.22.02.22.02v.04l-.22-.03c-.041-.01-.05-.02-.05-.04s.01-.03.03-.05.02-.02.02-.03a.136.136,0,0,0,.03-.04c.01-.01.02-.03.03-.03a.01.01,0,0,1-.01.01c-.04.01-.109.02-.18.03a.78.78,0,0,1-.22,0h-.02c-.06-.01-.19-.03-.2-.07s.03-.05.069-.081c.01-.01.03-.02.04-.03a.073.073,0,0,0,.03-.03c0-.01-.01.01-.02.01h-.109c-.04,0-.091-.01-.14-.01a.92.92,0,0,1-.19-.05.978.978,0,0,1-.139-.06c-.04-.03-.051-.04-.051-.06a.219.219,0,0,1,.05-.03.448.448,0,0,1,.05-.01.141.141,0,0,0,.04-.03h0l-.01-.01a.392.392,0,0,1-.06-.02,1.274,1.274,0,0,1-.22-.07l-.252-.109a2.6,2.6,0,0,1-.289-.14c-.089-.05-.18-.089-.26-.14a1.288,1.288,0,0,1-.16-.109.64.64,0,0,0,.091-.02ZM1051.75,247.109Z" transform="translate(-1046.689 -245.66)"/><path d="M1049.971,246.361a.659.659,0,0,1-.14.06,1.394,1.394,0,0,1-.17.04,1.288,1.288,0,0,1-.18.01h-.03c0,.01.01.02.01.03a.253.253,0,0,0,.07.05.288.288,0,0,0,.11.03.806.806,0,0,0,.16.01c.081,0,.15-.01.19-.01h.05c.01.01.02.01.02.03v.03c0,.01-.02.03-.04.05a.352.352,0,0,1-.109.07c-.04.03-.08.05-.109.07a.224.224,0,0,1-.1.03c-.03.01-.051.01-.06.02h0a.01.01,0,0,0,.01.01c.01.01.03.01.05.02s.06.01.089.02a1.006,1.006,0,0,0,.19.02,1.637,1.637,0,0,0,.2.01,1.489,1.489,0,0,0,.16-.01c0,.01.01.03.01.04a.617.617,0,0,1-.18.01c-.04,0-.126-.01-.2-.01a.9.9,0,0,1-.19-.03c-.03-.01-.07-.01-.1-.02a.163.163,0,0,1-.059-.03.055.055,0,0,1-.03-.05h0v-.01c.01-.04.04-.04.089-.05a.309.309,0,0,0,.089-.03c.03-.02.071-.04.109-.07s.08-.05.1-.07l.03-.03h-.03a1.084,1.084,0,0,1-.2.01.852.852,0,0,1-.16-.01,1.014,1.014,0,0,1-.126-.03.141.141,0,0,1-.079-.07.169.169,0,0,1-.02-.05v-.025c0-.01.01-.01.01-.02s.01-.01.02-.01h.03a1.272,1.272,0,0,0,.18-.01.925.925,0,0,0,.16-.04,1.189,1.189,0,0,0,.126-.05c.03.03.03.05.04.06Z" transform="translate(-1046.688 -245.662)"/><path d="M1050.638,246.79c-.04,0-.05.01-.08.05l-.02.02a.589.589,0,0,1-.079.07.607.607,0,0,0-.081.08.219.219,0,0,1-.089.07c-.03.02-.051.04-.081.06a.634.634,0,0,1-.126.091c-.04.02-.07.05-.079.05.01,0,.01.01.02.01a.075.075,0,0,0,.05.01c.03,0,.126.01.2.01.05,0,.091.01.126.01.06,0,.21-.01.21-.01a.06.06,0,0,0,.01.04,1.519,1.519,0,0,1-.22,0,.579.579,0,0,1-.126-.01c-.079,0-.17-.01-.2-.01a.179.179,0,0,1-.091-.03c-.01-.01-.02-.02-.02-.03v-.01c0-.02.05-.05.1-.08s.089-.06.126-.081.05-.05.079-.07a.556.556,0,0,0,.079-.07.833.833,0,0,1,.091-.081c.03-.03.06-.05.079-.07l.02-.02a.142.142,0,0,1,.126-.06.084.084,0,0,0-.02.06Z" transform="translate(-1046.689 -245.661)"/><path d="M1051.149,247.09a.6.6,0,0,0-.079.04c-.06.03-.126.06-.18.091a2.255,2.255,0,0,0-.21.126.091.091,0,0,1-.051.03.579.579,0,0,1-.08.04,1.144,1.144,0,0,0-.109.06c-.02.01-.03.02-.051.02s-.03.01-.03.02h0a.03.03,0,0,1-.02.01h0c0,.01.03.01.071.02a1.494,1.494,0,0,0,.19.01,2.946,2.946,0,0,0,.309-.03,1.555,1.555,0,0,0,.19-.03.606.606,0,0,0,.16-.05.252.252,0,0,1,.071-.02h.02c.01.01.01.02.01.04s-.01.01-.02.02a.651.651,0,0,1-.15.1,1.007,1.007,0,0,0-.18.091.691.691,0,0,1-.126.06c-.01.01-.03.01-.05.02-.05.01-.109.03-.109.04s.04.02.08.03a.708.708,0,0,1,.081.03,1.2,1.2,0,0,0,.279.03,1.571,1.571,0,0,0,.32-.01c.089-.02.259-.07.429-.126a1.484,1.484,0,0,0,.269-.109c.01.01.01.02.02.04a2.315,2.315,0,0,1-.279.109c-.16.05-.34.1-.43.126a1.632,1.632,0,0,1-.33.01,1.433,1.433,0,0,1-.3-.03c-.02-.01-.051-.02-.071-.03-.05-.02-.109-.04-.109-.07s.07-.06.14-.081a.109.109,0,0,1,.05-.01,1.183,1.183,0,0,0,.126-.06c.069-.03.14-.07.19-.089a.528.528,0,0,0,.1-.06,1.558,1.558,0,0,0-.17.05,1.762,1.762,0,0,1-.2.03c-.14.01-.289.03-.32.03a1.574,1.574,0,0,1-.19-.01c-.05-.01-.1-.02-.109-.04h0c-.02-.03,0-.05.03-.07h0c.01-.01.02-.01.04-.02s.03-.01.05-.02a1.109,1.109,0,0,1,.109-.06.6.6,0,0,1,.081-.04.219.219,0,0,1,.05-.03,1.183,1.183,0,0,1,.22-.126c.05-.02.126-.06.18-.089a.587.587,0,0,1,.079-.04.078.078,0,0,0,.01.03Z" transform="translate(-1046.688 -245.661)"/><path d="M1051.555,247.36a.561.561,0,0,1-.079.04,1.616,1.616,0,0,1-.17.07c-.01-.01-.01-.03-.02-.04.02-.01.1-.04.16-.07a.567.567,0,0,0,.081-.04.4.4,0,0,1,.03.04Z" transform="translate(-1046.689 -245.662)"/></g></g></g></g></svg>